<svg id="Слой_1" data-name="Слой 1" xmlns="http://www.w3.org/2000/svg" xmlns:xlink="http://www.w3.org/1999/xlink" viewBox="0 0 53 40"><defs><style>.cls-1{fill:none;}.cls-2{clip-path:url(#clip-path);}.cls-3{clip-path:url(#clip-path-2);}.cls-4{fill:#e5e5e5;}</style><clipPath id="clip-path" transform="translate(-31 -43)"><rect class="cls-1" width="115" height="125"/></clipPath><clipPath id="clip-path-2" transform="translate(-31 -43)"><rect class="cls-1" x="31" y="43" width="53" height="40"/></clipPath></defs><title>115-1</title><g class="cls-2"><g class="cls-3"><path class="cls-4" d="M57.59,63.51H79.48a5.22,5.22,0,0,1,1.42.18,4.33,4.33,0,0,1,1.78,1,3.9,3.9,0,0,1,1.11,1.68A3.83,3.83,0,0,1,84,67.48a3.52,3.52,0,0,1-.32,1.5,3.85,3.85,0,0,1-1.79,2,4.34,4.34,0,0,1-1.69.53,7.32,7.32,0,0,1-.81,0H73.55a.7.7,0,0,0-.76.71,1.08,1.08,0,0,0,0,.18v2.54c0,.49,0,1,0,1.49a2.26,2.26,0,0,1-1.35,2,2,2,0,0,1-.84.18c-.22,0-.44,0-.67,0a2.14,2.14,0,0,1-1.86-1.19,2.32,2.32,0,0,1-.26-1.07c0-1.35,0-2.7,0-4.05a1,1,0,0,0-.1-.47.69.69,0,0,0-1.19,0,.82.82,0,0,0-.12.43c0,.29,0,.59,0,.89a2.15,2.15,0,0,1-.18.87,2.19,2.19,0,0,1-.51.73,2.14,2.14,0,0,1-1.47.62h-.5a2.18,2.18,0,0,1-1.88-1.08,2.28,2.28,0,0,1-.33-1.18v-.84a.76.76,0,0,0-.1-.41.67.67,0,0,0-.61-.36H35.5a5.73,5.73,0,0,1-1-.08,4.5,4.5,0,0,1-2.31-1.18,3.93,3.93,0,0,1-.95-1.46A4.08,4.08,0,0,1,31,67.7a3.33,3.33,0,0,1,.13-1.13A3.86,3.86,0,0,1,32,65a4.23,4.23,0,0,1,1.3-1,4.45,4.45,0,0,1,1.38-.44,5.08,5.08,0,0,1,.87,0q3.69,0,7.38,0Zm-.07,1.67H35.38a4.87,4.87,0,0,0-.66,0,2.55,2.55,0,0,0-1.35.65,2.14,2.14,0,0,0-.73,1.39A2.06,2.06,0,0,0,33,68.75a2.59,2.59,0,0,0,.83.75,2.64,2.64,0,0,0,1.13.33c.27,0,.54,0,.82,0h25.1a2.11,2.11,0,0,1,1.23.41,2.26,2.26,0,0,1,.94,1.87c0,.29,0,.59,0,.88a.76.76,0,0,0,.16.46.83.83,0,0,0,.41.25,1.51,1.51,0,0,0,.52,0,.73.73,0,0,0,.46-.25.83.83,0,0,0,.18-.5c0-.29,0-.57,0-.86a2.61,2.61,0,0,1,0-.48,2.23,2.23,0,0,1,1.26-1.59A2.29,2.29,0,0,1,67.94,70a2.17,2.17,0,0,1,1.26,1.29,2.53,2.53,0,0,1,.15,1v3.83a2.09,2.09,0,0,0,0,.25.8.8,0,0,0,.23.48.67.67,0,0,0,.48.2,2.94,2.94,0,0,0,.42,0,.69.69,0,0,0,.47-.18.77.77,0,0,0,.24-.46,3.54,3.54,0,0,0,0-.46c0-.34,0-.69,0-1a2.41,2.41,0,0,0,0-.38.54.54,0,0,1,0-.18,3.85,3.85,0,0,0,0-.48V72.1A2.19,2.19,0,0,1,72,70.38a2,2,0,0,1,1.38-.53h6.51a2.48,2.48,0,0,0,1.64-.6,2.14,2.14,0,0,0,.83-1.53,2.17,2.17,0,0,0-.2-1.13A2.52,2.52,0,0,0,81,65.42a2.89,2.89,0,0,0-1.2-.24Z" transform="translate(-31 -43)"/><path class="cls-4" d="M57.45,56.92h-24a3.09,3.09,0,0,1-1.12-.29,1.74,1.74,0,0,1-.93-1.06,3.57,3.57,0,0,1-.17-1.38,5.85,5.85,0,0,1,.17-1.1,4.6,4.6,0,0,1,.34-.94,8.07,8.07,0,0,1,1.88-2.49,12.71,12.71,0,0,1,1.86-1.42A21,21,0,0,1,38,46.87c.65-.31,1.31-.58,2-.84.94-.36,1.88-.67,2.84-1s2-.54,3-.77c.69-.15,1.39-.29,2.09-.42s1.62-.28,2.44-.38l1.33-.16c.54-.07,1.08-.1,1.62-.15s1-.07,1.51-.1.84,0,1.26-.05c.94-.06,1.88,0,2.82,0,.5,0,1,.05,1.5.07l1.11.06,1,.09.55.05c.52.06,1,.11,1.57.18s1,.14,1.49.22l1.29.22c.64.12,1.28.24,1.92.39l1.51.37c.5.12,1,.25,1.48.4l1,.31c.94.29,1.86.63,2.77,1s1.68.74,2.49,1.17a21.22,21.22,0,0,1,1.87,1.14,10.38,10.38,0,0,1,2.42,2.26,5.65,5.65,0,0,1,1,1.82,4.21,4.21,0,0,1,.16,1.8,2.69,2.69,0,0,1-.73,1.6,2.47,2.47,0,0,1-1.05.63,3.09,3.09,0,0,1-1,.13H57.45Zm-.05-1.54h24a.48.48,0,0,0,.23-.07,1.09,1.09,0,0,0,.54-.72,2.85,2.85,0,0,0-.06-1.36,4.75,4.75,0,0,0-1-1.77,11.56,11.56,0,0,0-2.42-2,16.84,16.84,0,0,0-1.49-.85c-.45-.23-.9-.46-1.37-.65s-1.14-.49-1.72-.7l-1.59-.54c-.42-.14-.86-.25-1.28-.38-.67-.19-1.34-.36-2-.51l-1.84-.38q-.75-.15-1.5-.27T64.5,45c-.36,0-.73-.12-1.1-.14-.22,0-.43,0-.64-.06-.44-.07-.89-.09-1.33-.12s-1.09-.07-1.63-.09c-.95,0-1.9,0-2.85,0s-1.61,0-2.42.09c-.56,0-1.12.06-1.68.12l-.49,0-1,.11L50,45.12c-.48.07-1,.14-1.44.23-.67.12-1.33.25-2,.39s-1.14.26-1.71.4c-.3.07-.59.16-.88.24s-.87.24-1.31.38-.73.25-1.1.37c-.74.25-1.47.54-2.19.86a19.73,19.73,0,0,0-2.58,1.34,13,13,0,0,0-2.11,1.59,6.45,6.45,0,0,0-1.35,1.76,3.88,3.88,0,0,0-.4,2.14s0,.08,0,.12a.5.5,0,0,0,.48.43h24Z" transform="translate(-31 -43)"/><path class="cls-4" d="M57.45,83h-18c-.29,0-.58,0-.87,0a7.77,7.77,0,0,1-1.84-.35,6.94,6.94,0,0,1-1.68-.78,7.27,7.27,0,0,1-2-1.87,11.72,11.72,0,0,1-1.31-2.41,17.12,17.12,0,0,1-.68-2,2.32,2.32,0,0,1-.11-.87,2.13,2.13,0,0,1,.43-1.09,1.67,1.67,0,0,1,.54-.45,2.64,2.64,0,0,1,1.39-.4l1.88,0H36a3,3,0,0,1,1.7.53A8.67,8.67,0,0,1,39,74.46c.59.55,1.14,1.15,1.71,1.72A12.33,12.33,0,0,0,42,77.37l.18.13a.81.81,0,0,0,.64.13,3.28,3.28,0,0,0,.75-.24,10.57,10.57,0,0,0,1.08-.5c.54-.27,1.07-.56,1.6-.85l1.44-.79c.65-.36,1.31-.72,2-1.06s1.22-.59,1.85-.84a7.12,7.12,0,0,1,1.86-.5h5.35a2.46,2.46,0,0,1,.37,0,.83.83,0,0,1,.4.24,1,1,0,0,1,.2.43.82.82,0,0,1-.39.84.63.63,0,0,1-.37.12H53.69a3.66,3.66,0,0,0-1.31.24,18.78,18.78,0,0,0-2.1.95c-.73.37-1.45.76-2.17,1.16l-1.54.85c-.71.39-1.42.76-2.15,1.08a7.82,7.82,0,0,1-1.34.45,1.91,1.91,0,0,1-1.27-.14,5.15,5.15,0,0,1-1.38-.93c-.56-.5-1.08-1-1.6-1.58s-.92-.95-1.42-1.38a4.69,4.69,0,0,0-.75-.58.7.7,0,0,0-.37-.11l-1,0-1.21,0h-.89a.75.75,0,0,0-.38.1.32.32,0,0,0-.2.37,2.42,2.42,0,0,0,0,.25,16.61,16.61,0,0,0,.82,2.27,7.74,7.74,0,0,0,1,1.64,5.76,5.76,0,0,0,1.68,1.51,5.5,5.5,0,0,0,1.7.61,7.84,7.84,0,0,0,1.37.12H75.67a9.07,9.07,0,0,0,1-.06,5.42,5.42,0,0,0,3-1.37A7.32,7.32,0,0,0,81,78.3a10.45,10.45,0,0,0,.8-1.69,14.91,14.91,0,0,0,.47-1.52c0-.11.07-.22.1-.34a.18.18,0,0,0-.14-.23,1.4,1.4,0,0,0-.41-.06H75.27a1.1,1.1,0,0,1-.44-.07.83.83,0,0,1-.51-.66.81.81,0,0,1,.32-.78.79.79,0,0,1,.53-.18h6.36a3.37,3.37,0,0,1,1.1.16,2,2,0,0,1,.76.42A1.67,1.67,0,0,1,83.94,75a6.28,6.28,0,0,1-.23.85c-.12.42-.24.83-.39,1.23a11.34,11.34,0,0,1-1.67,3.15,7,7,0,0,1-2.74,2.14,7.59,7.59,0,0,1-2.2.57q-.61.06-1.23.06Z" transform="translate(-31 -43)"/><path class="cls-4" d="M40,58a12.63,12.63,0,0,1,1.5.12,8.61,8.61,0,0,1,1.42.33A8.29,8.29,0,0,1,44.1,59l1.34.75a6.8,6.8,0,0,0,1.63.66l.34.07a9.27,9.27,0,0,0,2,.08,9,9,0,0,0,.91-.11A5.15,5.15,0,0,0,51.51,60a11.15,11.15,0,0,0,1.3-.74,8.43,8.43,0,0,1,1.74-.83,8.22,8.22,0,0,1,1.83-.41A9.71,9.71,0,0,1,57.59,58,11.49,11.49,0,0,1,59,58.1a7.93,7.93,0,0,1,1.44.34,7.82,7.82,0,0,1,1.23.52c.45.24.87.52,1.3.78a5.83,5.83,0,0,0,1.6.64,5.66,5.66,0,0,0,.81.12,9.62,9.62,0,0,0,1.78,0A6,6,0,0,0,69,60a14.2,14.2,0,0,0,1.38-.74,10.49,10.49,0,0,1,1.69-.81,9.46,9.46,0,0,1,.91-.26A10.94,10.94,0,0,1,74.81,58,8.17,8.17,0,0,1,76,58a8.48,8.48,0,0,1,1.41.24,8.18,8.18,0,0,1,2.08.84l1.07.64a5.56,5.56,0,0,0,1.56.63,8.32,8.32,0,0,0,.85.13.8.8,0,0,1,.67.42.83.83,0,0,1,.09.58.89.89,0,0,1-.32.5.86.86,0,0,1-.64.15,8.85,8.85,0,0,1-2.14-.49A8.4,8.4,0,0,1,79.34,61a14.17,14.17,0,0,0-1.48-.81,5.69,5.69,0,0,0-2.22-.53,10.29,10.29,0,0,0-1.36,0,5.68,5.68,0,0,0-1.23.23,9.48,9.48,0,0,0-1.9.91,9.78,9.78,0,0,1-2,.95,9.18,9.18,0,0,1-1.15.28,7.62,7.62,0,0,1-1.5.14,8.25,8.25,0,0,1-1.72-.12c-.34-.06-.67-.12-1-.21a7.28,7.28,0,0,1-1.71-.71l-.87-.52a7.05,7.05,0,0,0-1.12-.59,5.15,5.15,0,0,0-1.27-.32,9.13,9.13,0,0,0-1.38-.08,7.65,7.65,0,0,0-1.65.18,5.46,5.46,0,0,0-1.09.39c-.46.22-.89.51-1.33.77a8.12,8.12,0,0,1-2.07.9,10,10,0,0,1-2,.3,10.71,10.71,0,0,1-1.39,0,8.2,8.2,0,0,1-3.16-.92c-.33-.17-.64-.35-1-.54a8.87,8.87,0,0,0-1.31-.65,4.82,4.82,0,0,0-1.24-.32,9.07,9.07,0,0,0-1.28-.08,6.93,6.93,0,0,0-1.64.18,6.63,6.63,0,0,0-1,.39c-.58.26-1.12.6-1.68.92a8.15,8.15,0,0,1-1.8.75,13,13,0,0,1-1.41.26.8.8,0,0,1-.81-.31.82.82,0,0,1,.39-1.29,4.09,4.09,0,0,1,.61-.1,4.75,4.75,0,0,0,1-.26,8.46,8.46,0,0,0,1.71-.9,8.46,8.46,0,0,1,2.48-1A10.51,10.51,0,0,1,39.5,58Z" transform="translate(-31 -43)"/><path class="cls-4" d="M37.15,52.64a.73.73,0,0,1-.68-.46.74.74,0,0,1,.2-.85c.26-.21.54-.41.82-.6a19.82,19.82,0,0,1,2.08-1.22c.51-.26,1-.49,1.56-.71s1.09-.42,1.65-.6.93-.28,1.4-.4.65-.15,1-.21.81-.16,1.22-.21a.75.75,0,0,1,.61.15.72.72,0,0,1,.28.71.77.77,0,0,1-.52.59,2.54,2.54,0,0,1-.54.09c-.31.07-.63.11-.94.18s-.73.16-1.09.26-.79.22-1.18.35-.93.34-1.39.53-1,.46-1.55.72a17.19,17.19,0,0,0-2.44,1.53.66.66,0,0,1-.46.15Z" transform="translate(-31 -43)"/></g></g></svg>