<svg id="Слой_1" data-name="Слой 1" xmlns="http://www.w3.org/2000/svg" xmlns:xlink="http://www.w3.org/1999/xlink" viewBox="0 0 73.04 29.12"><defs><style>.cls-1{fill:none;}.cls-2{clip-path:url(#clip-path);}.cls-3{fill:#e5e5e5;}</style><clipPath id="clip-path" transform="translate(-21 -48)"><rect class="cls-1" width="115" height="125"/></clipPath></defs><title>115</title><g class="cls-2"><path class="cls-3" d="M57.54,68.69h23c1.34,0,2.68,0,4,0,.49,0,1,0,1.47,0l6.15,0a3,3,0,0,1,.74.07,2.17,2.17,0,0,1,.68.3,1.18,1.18,0,0,1,.45.85,1.3,1.3,0,0,1-.11.7,19.47,19.47,0,0,1-1.3,2.53,14,14,0,0,1-1,1.41,7.49,7.49,0,0,1-2.82,2.1,7.21,7.21,0,0,1-1.89.49,7.11,7.11,0,0,1-1,.05H29.18a7.72,7.72,0,0,1-2.65-.44,7.36,7.36,0,0,1-1.9-1.05A9,9,0,0,1,23,73.93a14.45,14.45,0,0,1-1.25-2c-.21-.42-.39-.84-.59-1.26A1.5,1.5,0,0,1,21,70a1.22,1.22,0,0,1,.72-1.12,2.1,2.1,0,0,1,.82-.2h6.8l2.33,0H57.54Zm0,1.43H39.89c-2.94,0-5.89,0-8.83,0-.59,0-1.18,0-1.76,0l-3.87,0H22.7c-.24,0-.28.08-.18.3.24.52.48,1,.76,1.55a8.73,8.73,0,0,0,2.1,2.58,5.1,5.1,0,0,0,3.32,1.19H86.06a6.24,6.24,0,0,0,1,0,5.29,5.29,0,0,0,1.4-.38A5.82,5.82,0,0,0,90.19,74a8.72,8.72,0,0,0,1.53-2,17,17,0,0,0,.82-1.66.36.36,0,0,0,0-.09.09.09,0,0,0,0,0v0l0,0,0,0a.85.85,0,0,0-.32,0H91.4l-3.48,0H85.66c-1,0-1.91,0-2.87,0Z" transform="translate(-21 -48)"/><path class="cls-3" d="M57.54,55h24.8c1.07,0,2.13,0,3.2,0h2.21l4.34,0a1.5,1.5,0,0,0,.37,0c.12,0,.16-.08.11-.19l-.27-.59a11.35,11.35,0,0,0-1.46-2.44A6.81,6.81,0,0,0,89,50.14a5,5,0,0,0-1.76-.64,7.69,7.69,0,0,0-1.07-.07h-13a.65.65,0,0,1-.4-.12.68.68,0,0,1-.26-.32.75.75,0,0,1,.18-.8.68.68,0,0,1,.44-.19H85.91a8,8,0,0,1,2.18.3,7.11,7.11,0,0,1,1.71.77A8,8,0,0,1,92,51.14,14.83,14.83,0,0,1,93.67,54l.28.63a1.37,1.37,0,0,1,0,.85,1.14,1.14,0,0,1-.59.73,2.11,2.11,0,0,1-.84.26h-.62c-1.1,0-2.19,0-3.28,0-1.41,0-2.81,0-4.22,0s-2.61,0-3.92,0H32.33c-.52,0-1,0-1.56,0H30.5c-1.2,0-2.4,0-3.6,0s-2.68,0-4,0a2.41,2.41,0,0,1-.71-.07,2.23,2.23,0,0,1-.51-.19A1.21,1.21,0,0,1,21,55.18a1.19,1.19,0,0,1,.12-.58c.14-.31.28-.63.43-.94a14.45,14.45,0,0,1,1.26-2.19,9.73,9.73,0,0,1,1.43-1.64,7.11,7.11,0,0,1,2.14-1.33,7.37,7.37,0,0,1,2.71-.5H41.23a6.67,6.67,0,0,1,2.17.36,5.59,5.59,0,0,1,1.54.78,8.57,8.57,0,0,1,1,.74,5.39,5.39,0,0,1,.83.95.71.71,0,0,1,.11.25.62.62,0,0,1,0,.27.6.6,0,0,1-.1.25.58.58,0,0,1-.19.19.6.6,0,0,1-.81-.06,2.85,2.85,0,0,1-.23-.26,4.85,4.85,0,0,0-1.17-1.09,5.64,5.64,0,0,0-2.07-.87,7,7,0,0,0-1-.08H28.85a6.12,6.12,0,0,0-1.42.16,5.27,5.27,0,0,0-2.08,1.06,8.45,8.45,0,0,0-1.9,2.27,13.22,13.22,0,0,0-.84,1.63c0,.11-.09.21-.14.32s0,.15.09.17a1.75,1.75,0,0,0,.32,0l2.83,0h2.68c.92,0,1.84,0,2.76,0,1.53,0,3.07,0,4.61,0H57.54Z" transform="translate(-21 -48)"/><path class="cls-3" d="M71.75,64.36a7.52,7.52,0,0,1-3-.63,5.57,5.57,0,0,1-.68-.37l-.76-.47a4.36,4.36,0,0,0-1.72-.6,6.36,6.36,0,0,0-2.34.1,4.6,4.6,0,0,0-1.28.52c-.39.23-.78.46-1.18.68a7.4,7.4,0,0,1-1.63.59,7.64,7.64,0,0,1-1.58.17,7.1,7.1,0,0,1-3.29-.7l-.5-.28L53,62.88a4.75,4.75,0,0,0-2.26-.64,7.21,7.21,0,0,0-1.54.09,4.7,4.7,0,0,0-1.53.6c-.36.23-.72.45-1.09.65a6.23,6.23,0,0,1-1.63.59,7.55,7.55,0,0,1-1.35.17,7.06,7.06,0,0,1-1.45-.08,6.47,6.47,0,0,1-2.46-.87c-.23-.14-.46-.27-.68-.42a4.31,4.31,0,0,0-1.72-.66,6.17,6.17,0,0,0-2.8.18,4.56,4.56,0,0,0-.9.4l-1,.56a6.78,6.78,0,0,1-2.08.77,8.13,8.13,0,0,1-2.55,0,7,7,0,0,1-1.67-.46,9.79,9.79,0,0,1-1-.54l-.63-.39a4.4,4.4,0,0,0-1.72-.59l-.29,0a.64.64,0,0,1-.39-.2.68.68,0,0,1-.17-.4.67.67,0,0,1,.44-.73.88.88,0,0,1,.39,0,6.65,6.65,0,0,1,2.92,1,8.56,8.56,0,0,0,.93.53,4.53,4.53,0,0,0,1.39.45,6.67,6.67,0,0,0,1.48,0l.47,0a4.74,4.74,0,0,0,1.58-.56c.31-.17.61-.36.92-.54A6.61,6.61,0,0,1,34.41,61a7.67,7.67,0,0,1,2.24-.2,8.51,8.51,0,0,1,1.59.26,5.84,5.84,0,0,1,1.39.58c.25.14.48.29.72.44a5,5,0,0,0,1.6.7,5.63,5.63,0,0,0,.81.11,7.87,7.87,0,0,0,1.61-.07,4.06,4.06,0,0,0,1.31-.44c.2-.1.39-.22.58-.34a8.94,8.94,0,0,1,1.46-.79,6.14,6.14,0,0,1,1.46-.37,7.73,7.73,0,0,1,2,0,6.67,6.67,0,0,1,2.61.8l.73.43a6.56,6.56,0,0,0,1.34.63,3.38,3.38,0,0,0,.7.16,7.74,7.74,0,0,0,2.15,0A4.43,4.43,0,0,0,60,62.41l.62-.35c.36-.21.72-.41,1.09-.6a6.42,6.42,0,0,1,1.92-.56,8.31,8.31,0,0,1,1.93,0,6.37,6.37,0,0,1,2.8.93l.53.33a5,5,0,0,0,1.58.69,4.27,4.27,0,0,0,.81.11,7.26,7.26,0,0,0,1.61-.06,4.39,4.39,0,0,0,1.53-.55l.8-.5A6.23,6.23,0,0,1,77,61a8,8,0,0,1,2.29-.19,7.47,7.47,0,0,1,2,.41,8.6,8.6,0,0,1,1.18.58l.66.39a5.62,5.62,0,0,0,1.46.6,6.26,6.26,0,0,0,.74.1,7.61,7.61,0,0,0,1.51-.05,4.29,4.29,0,0,0,1.27-.41,7.77,7.77,0,0,0,.9-.48,8.19,8.19,0,0,1,1.47-.76,7,7,0,0,1,1.62-.35.68.68,0,0,1,.78.59.71.71,0,0,1-.11.51.68.68,0,0,1-.44.27c-.27,0-.54.08-.8.14a4.39,4.39,0,0,0-1.3.55c-.36.23-.73.46-1.11.66a5.92,5.92,0,0,1-1.62.58,7.57,7.57,0,0,1-1.33.17,7.07,7.07,0,0,1-3.39-.68c-.19-.09-.37-.2-.55-.3l-.84-.48a4.81,4.81,0,0,0-2.29-.64,7.15,7.15,0,0,0-1.53.09,4.51,4.51,0,0,0-1.51.6l-.83.5a6.41,6.41,0,0,1-2.15.79,5.45,5.45,0,0,1-1.06.11C72,64.33,71.87,64.35,71.75,64.36Z" transform="translate(-21 -48)"/><path class="cls-3" d="M57.54,65.85H92c.11,0,.23,0,.34,0a.7.7,0,0,1,.19,1.36l-.21,0a1.77,1.77,0,0,1-.23,0H23a1.92,1.92,0,0,1-.24,0,.66.66,0,0,1-.62-.56.67.67,0,0,1,.05-.44.71.71,0,0,1,.31-.33.61.61,0,0,1,.24-.07H57.54Z" transform="translate(-21 -48)"/><path class="cls-3" d="M57.52,57.87H68a.64.64,0,0,1,.46.23.66.66,0,0,1,.18.48.67.67,0,0,1-.19.47.69.69,0,0,1-.46.22H66c-5.43,0-10.87,0-16.3,0H47.26l-.3,0a.69.69,0,0,1-.56-.76.67.67,0,0,1,.64-.63H57.52Z" transform="translate(-21 -48)"/><path class="cls-3" d="M34,59.29H22.78a.7.7,0,0,1-.61-1.06.61.61,0,0,1,.21-.24.67.67,0,0,1,.31-.1h21a.7.7,0,0,1,.63.7.74.74,0,0,1-.18.47.75.75,0,0,1-.46.23h-2C38.86,59.31,36,59.28,34,59.29Z" transform="translate(-21 -48)"/><path class="cls-3" d="M81.84,59.28H71.47a.92.92,0,0,1-.29,0,.71.71,0,0,1-.44-.78.67.67,0,0,1,.64-.58h21a.73.73,0,0,1,.45.23.7.7,0,0,1-.46,1.16H81.84Z" transform="translate(-21 -48)"/><path class="cls-3" d="M63.68,48h2.81a6.46,6.46,0,0,1,2.09.35,6.24,6.24,0,0,1,1.53.76,8.51,8.51,0,0,1,1.11.87,4.91,4.91,0,0,1,.72.85.68.68,0,0,1,.12.44.75.75,0,0,1-.18.43.63.63,0,0,1-.91,0,1.12,1.12,0,0,1-.18-.2,4.87,4.87,0,0,0-1.31-1.21,5.4,5.4,0,0,0-2-.82,5.66,5.66,0,0,0-1-.08h-6a.72.72,0,0,1-.71-.58.75.75,0,0,1,.46-.82.64.64,0,0,1,.2,0h3.22Z" transform="translate(-21 -48)"/><path class="cls-3" d="M59.43,51.21a.65.65,0,0,1-.09.38.67.67,0,0,1-.28.25.66.66,0,0,1-.39.06.61.61,0,0,1-.34-.17l-.13-.15a5.74,5.74,0,0,0-1-1,5.47,5.47,0,0,0-2.58-1.08,6.13,6.13,0,0,0-.74,0h-6a.71.71,0,0,1-.45-.18.73.73,0,0,1-.21-.44.71.71,0,0,1,.5-.79l.19,0H53.8a6.84,6.84,0,0,1,2.19.36,6.07,6.07,0,0,1,1.38.67A8.76,8.76,0,0,1,58.6,50a6,6,0,0,1,.7.81.64.64,0,0,1,.13.42Z" transform="translate(-21 -48)"/></g></svg>