<svg width="235" height="155" viewBox="0 0 235 155" fill="none" xmlns="http://www.w3.org/2000/svg">
<path d="M44 119.734L50.8042 105.409L49.7298 103.619L51.7592 101.828L45.6712 26.5047L51.7592 23.1623L54.9822 26.5047L60.2346 23.1623L64.1738 24.4754L67.755 21.3718L70.6199 23.1623L74.5592 20.4168L81.0052 23.1623L88.645 18.1487L95.5686 20.7749L97.7173 18.7456L99.9853 20.4168L104.88 16.2388L107.864 20.4168L118.13 16.2388L124.869 20.4168L126.366 18.1487L130.306 23.1623L134.245 20.4168L129.351 91.443L137.468 108.752L72.0524 130L44 119.734Z" fill="#F0C18A"/>
<path d="M46.0293 26.1466L51.7591 23.043L54.7434 26.1466L59.9958 23.043L64.1738 23.8786L67.8743 21.2524L70.7392 23.043L74.9173 20.178L81.0052 22.5655L88.5256 17.7906L95.6879 20.178L97.8366 17.7906L99.7466 20.178L104.88 16.2388L107.864 20.178L118.488 16.2388L124.934 20.178L122.069 23.8786L118.488 23.043L114.549 25.1916L110.968 23.043L106.312 26.1466L102.492 23.8786L99.7466 26.1466L95.6879 23.8786L89.6 28.5341L85.3026 25.1916L79.0953 29.7278L72.2911 25.1916L65.6063 29.7278L62.5026 26.1466L58.3246 29.7278L54.7434 26.1466L50.0879 28.5341L46.0293 26.1466Z" fill="#C4905B"/>
<path d="M59.8764 107.677L44.955 119.615L71.2167 129.045L59.8764 107.677Z" fill="#C59161"/>
<path d="M60.4733 106.603L71.6942 128.209L74.4398 111.975L71.6942 106.603L74.4398 104.693L71.6942 25.311L65.4869 29.7278L62.622 26.5048L58.5634 29.7278L60.4733 106.603Z" fill="#C59161"/>
<path d="M44 119.495L50.8042 105.171L49.7298 103.38L51.7592 101.59L45.6712 26.266M44 119.495L60.2346 106.961M44 119.495L72.0524 129.761M45.6712 26.266L49.7298 28.2953L54.9822 26.266M45.6712 26.266L51.7592 22.9236L54.9822 26.266M54.9822 26.266L57.9665 29.7277M54.9822 26.266L60.2346 22.9236L64.1738 24.2366L67.755 21.133L70.6199 22.9236L74.5592 20.178L81.0052 22.9236L88.645 17.9099L95.5686 20.5361L97.7173 18.5068L99.9853 20.178L104.88 16L107.864 20.178L118.13 16L124.869 20.178M57.9665 29.7277L62.7414 26.266L65.6063 29.7277L72.0524 25.1916M57.9665 29.7277L60.2346 106.961M72.0524 25.1916L74.5592 105.171L72.0524 106.961L74.5592 110.901L72.0524 129.761M72.0524 25.1916L79.2147 29.7277L85.3026 25.1916L89.7194 28.2953L95.0911 24.2366L98.7916 26.266L102.612 24.2366L106.551 26.266L111.087 22.9236L114.907 25.1916L118.13 22.9236L122.188 24.2366L124.869 20.178M72.0524 129.761L60.2346 106.961M72.0524 129.761L137.468 108.513L129.351 91.2042M129.351 91.2042L134.245 20.178L130.306 22.9236L126.366 17.9099L124.869 20.178M129.351 91.2042L115.265 94.9644L101.179 98.7246M107.864 101.59L121.95 97.8293" stroke="black" stroke-width="1.19372" stroke-linecap="round" stroke-linejoin="round"/>
<path d="M85.3087 61.4346L118.064 60.5286L116.999 70.9704L85.5072 74.8958L85.3087 61.4346Z" fill="#C91E25"/>
<g clip-path="url(#clip0_3119_3383)">
<path d="M96.1819 70.7169L96.0624 68.9147L96.3631 68.8947L96.4828 70.6992L96.1819 70.7169ZM97.0845 70.657L96.633 70.687L96.613 70.3859L96.9449 70.3639L97.0567 70.2368L97.0426 70.0242L96.915 69.913L96.5831 69.935L96.5632 69.6344L96.8951 69.6124L97.0068 69.4849L96.9927 69.2723L96.8651 69.1611L96.5332 69.1831L96.5135 68.8848L96.965 68.8548L97.2857 69.1355L97.3156 69.5868L97.1764 69.7447L97.3368 69.885L97.3667 70.3359L97.0845 70.657Z" fill="white"/>
<path d="M98.2087 70.5824L97.8875 70.3013L97.788 68.8002L98.0891 68.7802L98.181 70.1645L98.308 70.2757L98.4144 70.2687L98.4344 70.5697L98.2087 70.5824ZM98.8101 70.5425L98.5846 70.5575L98.5646 70.2564L98.671 70.2494L98.7822 70.1223L98.6906 68.7403L98.9918 68.7203L99.0915 70.2238L98.8101 70.5425Z" fill="white"/>
<path d="M99.6303 70.4881L99.5107 68.6859L99.8115 68.666L99.9311 70.4705L99.6303 70.4881ZM100.507 70.43L100.136 69.6993L100.03 69.7064L100.01 69.4058L100.342 69.3838L100.453 69.2562L100.439 69.0436L100.312 68.9324L99.9798 68.9544L99.96 68.6561L100.412 68.6262L100.732 68.9068L100.762 69.3582L100.481 69.6787L100.832 70.4107L100.507 70.43Z" fill="white"/>
<path d="M101.64 70.3548L101.319 70.0738L101.239 68.8709L101.521 68.5503L101.747 68.5354L101.767 68.836L101.66 68.843L101.549 68.97L101.613 69.9323L101.74 70.0436L101.846 70.0365L101.866 70.3376L101.64 70.3548ZM102.15 68.9302L102.02 68.8191L101.917 68.826L101.897 68.5277L102.122 68.5127L102.443 68.7934L102.451 68.9125L102.15 68.9302ZM102.242 70.315L102.016 70.3299L101.996 70.0289L102.1 70.022L102.214 69.8948L102.2 69.6821L101.974 69.6971L101.956 69.4277L102.483 69.3927L102.523 69.9939L102.242 70.315Z" fill="white"/>
<path d="M102.992 70.2652L102.872 68.463L103.173 68.4431L103.293 70.2476L102.992 70.2652ZM103.343 68.7314L103.323 68.4331L104.076 68.3832L104.096 68.6838L103.343 68.7314ZM103.393 69.4834L103.373 69.1828L103.853 69.1509L103.873 69.4515L103.393 69.4834ZM103.443 70.2353L103.423 69.9343L104.175 69.8844L104.195 70.1854L103.443 70.2353Z" fill="white"/>
<path d="M104.623 70.1571L104.504 68.3549L104.805 68.3349L104.924 70.1394L104.623 70.1571ZM105.5 70.0989L105.129 69.3683L105.025 69.3751L105.006 69.0745L105.337 69.0525L105.449 68.925L105.435 68.7124L105.307 68.6012L104.976 68.6232L104.956 68.3249L105.407 68.2949L105.728 68.5756L105.758 69.0269L105.477 69.3475L105.828 70.0795L105.5 70.0989Z" fill="white"/>
<path d="M106.565 69.273L106.243 68.9924L106.213 68.5411L106.494 68.2205L106.72 68.2056L106.739 68.5062L106.636 68.513L106.522 68.6458L106.536 68.8479L106.666 68.9644L106.769 68.9575L106.789 69.2581L106.565 69.273ZM106.615 70.025L106.293 69.7439L106.285 69.6248L106.586 69.6048L106.716 69.7159L106.819 69.709L106.839 70.0101L106.615 70.025ZM107.125 68.6003L107 68.4889L106.892 68.4961L106.872 68.1978L107.097 68.1828L107.418 68.4635L107.426 68.5826L107.125 68.6003ZM107.217 69.985L106.991 70L106.971 69.6989L107.078 69.6919L107.189 69.5648L107.175 69.3522L107.048 69.241L106.942 69.248L106.922 68.9474L107.147 68.9325L107.468 69.2131L107.498 69.664L107.217 69.985Z" fill="white"/>
<path d="M90.3987 67.7908L89.8199 67.2843L89.6761 65.1155L90.1829 64.5374L90.5895 64.5104L90.6255 65.0525L90.4339 65.0652L90.2331 65.2948L90.3484 67.0333L90.5777 67.234L90.7693 67.2213L90.8053 67.7638L90.3987 67.7908ZM91.4879 67.7186L91.0753 67.7459L91.0393 67.2034L91.2264 67.191L91.4317 66.9615L91.3165 65.2253L91.0873 65.0242L90.897 65.0368L90.8611 64.4947L91.2677 64.4677L91.8459 64.9739L91.9898 67.1427L91.4879 67.7186Z" fill="white"/>
<path d="M92.549 67.6481L92.3333 64.3947L92.876 64.3587L93.0918 67.6121L92.549 67.6481ZM93.3627 67.5941L93.3267 67.0516L94.6832 66.9616L94.7192 67.5042L93.3627 67.5941Z" fill="white"/>
<path d="M95.079 67.4804L94.8633 64.2269L95.4056 64.191L95.6214 67.4444L95.079 67.4804ZM96.706 67.3725L95.8927 67.4264L95.8568 66.8839L96.4504 66.8445L96.6557 66.615L96.5406 64.8788L96.3067 64.678L95.7131 64.7173L95.6771 64.1753L96.4904 64.1213L97.0671 64.6252L97.2109 66.794L96.706 67.3725Z" fill="white"/>
<path d="M98.2715 65.9072L97.6932 65.4006L97.6392 64.5873L98.1456 64.0092L98.5522 63.9822L98.5882 64.5243L98.4011 64.5367L98.1964 64.7758L98.2207 65.1424L98.4551 65.3501L98.6421 65.3377L98.6781 65.8802L98.2715 65.9072ZM98.3613 67.2626L97.783 66.7561L97.7688 66.5411L98.3111 66.5052L98.5449 66.7055L98.732 66.6931L98.768 67.2357L98.3613 67.2626ZM99.282 64.6969L99.0573 64.4955L98.8597 64.5086L98.8237 63.9665L99.2317 63.9395L99.8105 64.4456L99.8247 64.6609L99.282 64.6969ZM99.4475 67.1929L99.0395 67.22L99.0035 66.6774L99.1951 66.6647L99.3959 66.4355L99.3705 66.0525L99.1412 65.8518L98.9496 65.8645L98.9135 65.3197L99.3215 65.2926L99.9002 65.7992L99.9541 66.6121L99.4475 67.1929Z" fill="white"/>
<path d="M101.073 67.0828L100.495 66.5762L100.351 64.4074L100.858 63.8294L101.264 63.8024L101.3 64.3445L101.109 64.3572L100.908 64.5868L101.023 66.3254L101.252 66.526L101.444 66.5133L101.48 67.0559L101.073 67.0828ZM101.993 64.5172L101.759 64.3164L101.572 64.3288L101.536 63.7867L101.942 63.7598L102.522 64.2635L102.537 64.4788L101.993 64.5172ZM102.158 67.0132L101.752 67.0402L101.716 66.4976L101.903 66.4852L102.108 66.2557L102.652 66.2196L102.666 66.4346L102.158 67.0132Z" fill="white"/>
<path d="M103.154 66.9448L102.938 63.6914L103.481 63.6554L103.696 66.9089L103.154 66.9448ZM104.782 66.8369L104.692 65.4815L103.878 65.5354L103.842 64.9929L104.656 64.9389L104.566 63.5835L105.108 63.5475L105.324 66.8009L104.782 66.8369Z" fill="white"/>
<path d="M106.488 66.7238L105.91 66.2172L105.766 64.0484L106.272 63.4704L106.679 63.4434L106.715 63.9855L106.524 63.9982L106.322 64.2278L106.438 65.9664L106.667 66.167L106.859 66.1543L106.895 66.6968L106.488 66.7238ZM107.578 66.6516L107.165 66.6789L107.129 66.1364L107.316 66.124L107.522 65.8945L107.407 64.1582L107.177 63.9571L106.985 63.9699L106.949 63.4278L107.356 63.4008L107.935 63.9069L108.079 66.0757L107.578 66.6516Z" fill="white"/>
<path d="M109.261 66.5399L108.683 66.0333L108.539 63.8645L109.045 63.2864L109.452 63.2595L109.488 63.8015L109.296 63.8143L109.095 64.0439L109.211 65.7824L109.44 65.9831L109.632 65.9703L109.667 66.5129L109.261 66.5399ZM110.351 66.4676L109.938 66.495L109.902 65.9524L110.089 65.94L110.294 65.7105L110.179 63.9743L109.95 63.7732L109.758 63.7859L109.722 63.2438L110.129 63.2168L110.708 63.7229L110.852 65.8917L110.351 66.4676Z" fill="white"/>
<path d="M111.412 66.3972L111.196 63.1438L111.739 63.1078L111.954 66.3613L111.412 66.3972ZM112.226 66.3433L112.19 65.8007L113.546 65.7108L113.582 66.2533L112.226 66.3433Z" fill="white"/>
</g>
<path d="M107 129.832L113.076 117.04L112.117 115.441L113.929 113.842L108.492 46.5775L113.929 43.5927L116.807 46.5775L121.498 43.5927L125.015 44.7653L128.213 41.9937L130.772 43.5927L134.29 41.1409L140.046 43.5927L146.869 39.1155L153.051 41.4607L154.97 39.6485L156.996 41.1409L161.366 37.4099L164.031 41.1409L173.199 37.4099L179.217 41.1409L180.554 39.1155L184.072 43.5927L187.59 41.1409L183.219 104.568L190.468 120.025L132.051 139L107 129.832Z" fill="#F0C18A"/>
<path d="M108.812 46.2577L113.929 43.4861L116.594 46.2577L121.284 43.4861L125.015 44.2323L128.32 41.8871L130.878 43.4861L134.609 40.9277L140.046 43.0597L146.762 38.7957L153.158 40.9277L155.077 38.7957L156.782 40.9277L161.366 37.4099L164.031 40.9277L173.519 37.4099L179.275 40.9277L176.717 44.2323L173.519 43.4861L170.001 45.4049L166.803 43.4861L162.645 46.2577L159.234 44.2323L156.782 46.2577L153.158 44.2323L147.721 48.3897L143.884 45.4049L138.34 49.4557L132.264 45.4049L126.295 49.4557L123.523 46.2577L119.792 49.4557L116.594 46.2577L112.437 48.3897L108.812 46.2577Z" fill="#C4905B"/>
<path d="M121.178 119.066L107.853 129.726L131.305 138.147L121.178 119.066Z" fill="#C59161"/>
<path d="M121.711 118.106L131.731 137.401L134.183 122.903L131.731 118.106L134.183 116.401L131.731 45.5115L126.188 49.4557L123.63 46.5775L120.005 49.4557L121.711 118.106Z" fill="#C59161"/>
<path d="M107 129.619L113.076 116.827L112.117 115.228L113.929 113.629L108.492 46.3643M107 129.619L121.498 118.426M107 129.619L132.051 138.787M108.492 46.3643L112.117 48.1765L116.807 46.3643M108.492 46.3643L113.929 43.3795L116.807 46.3643M116.807 46.3643L119.472 49.4557M116.807 46.3643L121.498 43.3795L125.015 44.5521L128.213 41.7805L130.772 43.3795L134.29 40.9277L140.046 43.3795L146.869 38.9023L153.051 41.2475L154.97 39.4353L156.996 40.9277L161.366 37.1967L164.031 40.9277L173.199 37.1967L179.217 40.9277M119.472 49.4557L123.736 46.3643L126.295 49.4557L132.051 45.4049M119.472 49.4557L121.498 118.426M132.051 45.4049L134.29 116.827L132.051 118.426L134.29 121.944L132.051 138.787M132.051 45.4049L138.447 49.4557L143.884 45.4049L147.828 48.1765L152.625 44.5521L155.93 46.3643L159.341 44.5521L162.859 46.3643L166.909 43.3795L170.321 45.4049L173.199 43.3795L176.823 44.5521L179.217 40.9277M132.051 138.787L121.498 118.426M132.051 138.787L190.468 119.812L183.219 104.355M183.219 104.355L187.59 40.9277L184.072 43.3795L180.554 38.9023L179.217 40.9277M183.219 104.355L170.64 107.713L158.062 111.071M164.031 113.629L176.61 110.271" stroke="black" stroke-width="1.066" stroke-linecap="round" stroke-linejoin="round"/>
<path d="M159.47 73.4077L172.936 81.4165C173.735 81.8915 173.861 82.9969 173.19 83.6397L162.012 94.3461C161.436 94.8971 160.568 95.0064 159.874 94.6153L146.265 86.9446C145.449 86.4845 145.303 85.3694 145.973 84.7146L157.283 73.6681C157.869 73.0961 158.766 72.9892 159.47 73.4077Z" fill="#00A960"/>
<path d="M159.47 74.2276L172.151 81.7696C172.72 82.1075 172.809 82.894 172.332 83.3513L161.802 93.4368C161.274 93.9423 160.478 94.0426 159.841 93.6838L147.02 86.457C146.439 86.1297 146.335 85.3363 146.812 84.8705L157.464 74.4665C158.001 73.9417 158.824 73.8437 159.47 74.2276Z" fill="#00A960" stroke="white" stroke-width="0.386855"/>
<path d="M159.295 80.1549L162.095 79.9813C162.102 79.981 162.109 79.9829 162.115 79.9868C162.122 79.9906 162.128 79.9964 162.133 80.0035C162.137 80.0107 162.14 80.0191 162.142 80.0281C162.144 80.0371 162.144 80.0463 162.142 80.0551C162.137 80.0812 162.131 80.1066 162.123 80.1312C162.103 80.1891 162.075 80.2421 162.041 80.2878C162.011 80.3306 161.978 80.369 161.942 80.4024C161.908 80.4313 161.87 80.4596 161.839 80.4855C161.794 80.5177 161.745 80.5384 161.693 80.5464C161.667 80.548 161.641 80.5496 161.618 80.551L157.044 80.8346C156.99 80.8394 156.935 80.8334 156.883 80.8168C156.867 80.812 156.852 80.8062 156.837 80.7995C156.763 80.7635 156.692 80.7149 156.627 80.6552C156.588 80.6193 156.552 80.5769 156.522 80.5293C156.5 80.4945 156.482 80.4563 156.468 80.4156C156.464 80.403 156.463 80.3894 156.465 80.3764C156.467 80.3635 156.472 80.3518 156.479 80.3429C156.486 80.334 156.496 80.3284 156.506 80.3269L159.305 80.1534L159.295 80.1549Z" fill="white"/>
<path d="M159.204 78.1813L159.902 78.138C159.915 78.1375 159.929 78.1392 159.942 78.1432C160.017 78.1664 160.088 78.2061 160.154 78.2606C160.193 78.2944 160.228 78.3344 160.26 78.3797C160.26 78.3854 160.266 78.3937 160.273 78.3942C160.278 78.3745 160.28 78.3534 160.277 78.3325C160.277 78.3127 160.276 78.2929 160.274 78.2733C160.269 78.2526 160.262 78.2329 160.253 78.2151C160.243 78.1986 160.233 78.1829 160.223 78.168C160.211 78.1524 160.198 78.1398 160.186 78.1262C160.186 78.1204 160.191 78.1211 160.193 78.1209L161.473 78.0415C161.522 78.0377 161.571 78.0431 161.619 78.0575C161.636 78.0622 161.654 78.0688 161.671 78.0773C161.747 78.1134 161.819 78.1629 161.885 78.2243C161.923 78.259 161.957 78.3001 161.986 78.3465C162.008 78.3823 162.027 78.4215 162.041 78.463C162.045 78.4723 162.046 78.4826 162.046 78.4928C162.046 78.503 162.044 78.5129 162.04 78.5216C162.036 78.5302 162.03 78.5374 162.023 78.5423C162.016 78.5473 162.008 78.5499 162 78.55L156.404 78.897C156.397 78.897 156.389 78.8949 156.383 78.8908C156.376 78.8866 156.37 78.8806 156.365 78.8732C156.361 78.8657 156.358 78.8571 156.356 78.8479C156.354 78.8387 156.354 78.8293 156.356 78.8203C156.364 78.7787 156.376 78.7388 156.392 78.702C156.418 78.6448 156.451 78.5932 156.489 78.5492C156.545 78.4856 156.606 78.4315 156.673 78.3881C156.722 78.3563 156.776 78.3366 156.832 78.3303L157.938 78.2617C157.957 78.2605 157.976 78.2632 157.995 78.2697C158.065 78.293 158.131 78.3304 158.192 78.3803C158.233 78.4144 158.27 78.4557 158.302 78.503L158.313 78.5176C158.324 78.4681 158.321 78.4144 158.303 78.3667C158.285 78.3185 158.256 78.2774 158.221 78.248L158.23 78.2474L158.916 78.2049C158.934 78.204 158.952 78.2064 158.97 78.2121C159.045 78.2371 159.117 78.2788 159.182 78.3352C159.217 78.3665 159.249 78.4032 159.277 78.4444L159.289 78.461C159.295 78.4606 159.295 78.4606 159.295 78.451C159.301 78.4071 159.297 78.3617 159.284 78.3196C159.271 78.2776 159.249 78.2407 159.221 78.2129L159.201 78.193L159.204 78.1813Z" fill="white"/>
<path d="M156.521 79.4048C156.567 79.4048 156.613 79.4156 156.657 79.4367C156.693 79.455 156.729 79.4783 156.762 79.506C156.787 79.5269 156.813 79.546 156.84 79.5635C156.861 79.577 156.883 79.5881 156.906 79.5969C156.965 79.622 157.029 79.618 157.085 79.5857C157.11 79.5701 157.134 79.5513 157.156 79.5295C157.175 79.5121 157.192 79.4937 157.21 79.4753C157.232 79.4508 157.256 79.4285 157.281 79.4086C157.319 79.3791 157.363 79.3613 157.409 79.3563C157.454 79.3513 157.5 79.3593 157.544 79.3798C157.582 79.3963 157.618 79.4189 157.652 79.4469C157.674 79.4648 157.697 79.4835 157.72 79.4993C157.751 79.5224 157.785 79.5394 157.82 79.5498C157.869 79.5667 157.922 79.5634 157.969 79.5405C157.994 79.5273 158.019 79.5104 158.041 79.49C158.063 79.4685 158.085 79.446 158.107 79.4235C158.131 79.3987 158.156 79.3763 158.183 79.3565C158.221 79.3271 158.265 79.3092 158.31 79.3041C158.355 79.299 158.401 79.3067 158.444 79.3268C158.485 79.3449 158.524 79.3696 158.56 79.4002C158.587 79.4236 158.616 79.4446 158.645 79.4631C158.67 79.4781 158.696 79.4897 158.723 79.4976C158.774 79.5155 158.828 79.5122 158.877 79.4881C158.907 79.4718 158.935 79.4511 158.961 79.4262C158.98 79.4087 158.998 79.3894 159.017 79.37C159.046 79.3386 159.078 79.3118 159.113 79.2902C159.147 79.2676 159.185 79.2542 159.224 79.2507C159.27 79.2475 159.317 79.2577 159.361 79.2806C159.395 79.2981 159.428 79.3202 159.459 79.3464C159.483 79.3651 159.507 79.3838 159.531 79.4014C159.556 79.4185 159.582 79.432 159.609 79.4417C159.664 79.4623 159.722 79.4587 159.773 79.4315C159.803 79.4163 159.831 79.3965 159.857 79.3726C159.877 79.3531 159.897 79.3327 159.917 79.3113C159.957 79.2686 160.004 79.2352 160.053 79.2127C160.118 79.1838 160.19 79.1852 160.256 79.2164C160.294 79.2345 160.33 79.2576 160.363 79.2856C160.388 79.3052 160.412 79.3247 160.438 79.3424C160.462 79.3599 160.488 79.3734 160.515 79.3826C160.571 79.4042 160.63 79.4005 160.683 79.3723C160.711 79.3572 160.739 79.3378 160.764 79.3145L160.823 79.2561C160.86 79.2168 160.901 79.1848 160.945 79.1612C160.981 79.1423 161.02 79.1328 161.06 79.1333C161.099 79.1338 161.139 79.1443 161.176 79.1642C161.209 79.1815 161.242 79.203 161.272 79.2283C161.296 79.2479 161.32 79.2665 161.345 79.2842C161.37 79.3014 161.396 79.3153 161.422 79.3254C161.477 79.3465 161.535 79.3429 161.587 79.3152C161.621 79.2982 161.652 79.2753 161.681 79.2471C161.698 79.2306 161.715 79.2123 161.733 79.1939C161.772 79.1517 161.818 79.119 161.867 79.0974C161.908 79.0792 161.953 79.0732 161.997 79.0797C162.01 79.0804 162.022 79.0873 162.03 79.0989C162.039 79.1106 162.044 79.126 162.045 79.142L162.047 79.185C162.048 79.1936 162.047 79.2022 162.045 79.2103C162.043 79.2184 162.039 79.2257 162.035 79.2318C162.03 79.2379 162.024 79.2426 162.018 79.2456C162.012 79.2487 162.005 79.25 161.998 79.2494L161.992 79.2499C161.948 79.2463 161.905 79.2576 161.866 79.2826C161.837 79.3016 161.81 79.3249 161.786 79.3518C161.757 79.3834 161.727 79.4119 161.695 79.4371C161.66 79.465 161.621 79.4858 161.581 79.4989C161.521 79.5171 161.458 79.5141 161.399 79.49C161.36 79.4748 161.324 79.4539 161.289 79.4278C161.268 79.4137 161.249 79.3976 161.23 79.3824C161.208 79.3641 161.184 79.3476 161.16 79.3331C161.132 79.3159 161.101 79.3066 161.07 79.3057C161.038 79.3048 161.008 79.3124 160.979 79.328C160.946 79.3465 160.915 79.371 160.887 79.4008L160.839 79.4499C160.809 79.4788 160.777 79.504 160.743 79.5249C160.662 79.574 160.567 79.5799 160.481 79.5412C160.432 79.5192 160.385 79.4899 160.342 79.4538L160.31 79.428C160.291 79.4138 160.271 79.4007 160.251 79.3884C160.224 79.3724 160.195 79.3636 160.165 79.3626C160.135 79.3617 160.106 79.3685 160.079 79.3829C160.043 79.401 160.011 79.426 159.982 79.457C159.966 79.4733 159.95 79.4906 159.933 79.506C159.904 79.5364 159.871 79.562 159.836 79.5821C159.755 79.6312 159.662 79.637 159.576 79.5982C159.526 79.5768 159.479 79.5475 159.436 79.511L159.383 79.4701C159.362 79.4543 159.34 79.4418 159.316 79.433C159.269 79.4139 159.218 79.417 159.174 79.4418C159.152 79.4536 159.132 79.4688 159.113 79.4869C159.097 79.5013 159.082 79.5166 159.068 79.5319C159.028 79.5734 158.985 79.6083 158.938 79.6359C158.898 79.6609 158.854 79.6752 158.809 79.678C158.764 79.6808 158.719 79.672 158.676 79.6521C158.627 79.6304 158.581 79.601 158.538 79.5647C158.52 79.5505 158.501 79.5353 158.483 79.5221C158.449 79.4979 158.412 79.4826 158.374 79.477C158.337 79.4706 158.3 79.4769 158.266 79.4952C158.235 79.5143 158.206 79.5383 158.179 79.5668L158.124 79.623C158.095 79.6509 158.064 79.6747 158.031 79.694C157.95 79.7426 157.857 79.7484 157.771 79.7102C157.722 79.688 157.676 79.6586 157.633 79.6228C157.615 79.6085 157.597 79.5943 157.578 79.5811C157.545 79.5569 157.508 79.5412 157.471 79.5349C157.434 79.5282 157.397 79.5341 157.363 79.5522C157.34 79.5648 157.319 79.581 157.299 79.6003C157.281 79.6167 157.265 79.634 157.248 79.6514C157.211 79.6922 157.17 79.727 157.126 79.7549C157.078 79.7834 157.024 79.7972 156.97 79.7953C156.935 79.7933 156.9 79.7848 156.867 79.77C156.817 79.7481 156.77 79.7189 156.726 79.6828C156.708 79.6686 156.69 79.6534 156.671 79.6411C156.638 79.617 156.602 79.6017 156.564 79.596C156.542 79.594 156.52 79.5953 156.499 79.6L156.482 79.6011C156.47 79.6011 156.459 79.5957 156.45 79.586C156.442 79.5763 156.436 79.5629 156.434 79.5484C156.433 79.5293 156.432 79.5101 156.43 79.491C156.43 79.4775 156.433 79.4642 156.439 79.4536C156.445 79.4429 156.455 79.4357 156.465 79.4332C156.485 79.4118 156.503 79.4088 156.521 79.4048Z" fill="white"/>
<path d="M159.278 79.9565L156.588 80.1233C156.571 80.1234 156.554 80.1151 156.54 80.1001C156.527 80.085 156.519 80.0644 156.517 80.0423C156.514 80.0213 156.517 79.9998 156.525 79.9816C156.533 79.9635 156.546 79.95 156.562 79.9436L156.577 79.9427L161.965 79.6086C161.981 79.6089 161.997 79.6163 162.009 79.6296C162.021 79.6429 162.03 79.6612 162.032 79.6812C162.036 79.7013 162.034 79.7221 162.027 79.74C162.02 79.758 162.008 79.772 161.993 79.7796C161.987 79.7809 161.98 79.7813 161.974 79.7808L159.283 79.9476L159.278 79.9565Z" fill="white"/>
<path d="M161.121 78.9872L160.346 79.0353C160.336 79.0368 160.326 79.0374 160.316 79.0371C160.301 79.0358 160.285 79.0272 160.274 79.0129C160.262 78.9987 160.255 78.9797 160.253 78.9595C160.251 78.9472 160.251 78.9346 160.254 78.9227C160.256 78.9107 160.261 78.8996 160.267 78.8902C160.273 78.8807 160.28 78.873 160.289 78.8678C160.298 78.8625 160.307 78.8597 160.317 78.8596L161.905 78.7611C161.917 78.7615 161.929 78.7659 161.94 78.7738C161.95 78.7817 161.959 78.7929 161.966 78.8063C161.972 78.8197 161.976 78.8348 161.976 78.8502C161.977 78.8657 161.974 78.8809 161.969 78.8944C161.965 78.9057 161.959 78.9156 161.951 78.9231C161.943 78.9306 161.934 78.9355 161.925 78.9374L161.893 78.9393L161.121 78.9872Z" fill="white"/>
<path d="M157.326 79.2224L156.555 79.2703C156.545 79.2719 156.535 79.2725 156.524 79.2722C156.508 79.2706 156.493 79.2619 156.481 79.2474C156.47 79.233 156.462 79.2139 156.461 79.1936C156.459 79.1808 156.46 79.1679 156.462 79.1556C156.465 79.1434 156.47 79.1321 156.476 79.1225C156.483 79.113 156.491 79.1055 156.5 79.1005C156.509 79.0954 156.519 79.093 156.529 79.0934L158.118 78.9949C158.13 78.9968 158.141 79.002 158.15 79.0101C158.16 79.0182 158.169 79.029 158.175 79.0417C158.181 79.0544 158.185 79.0687 158.186 79.0833C158.187 79.098 158.185 79.1127 158.181 79.1262C158.177 79.138 158.171 79.1483 158.163 79.1563C158.156 79.1643 158.146 79.1698 158.136 79.1722L158.105 79.1742L157.326 79.2224Z" fill="white"/>
<path d="M159.209 78.9244L160.007 78.875C160.019 78.8758 160.03 78.8805 160.041 78.8886C160.051 78.8968 160.06 78.9081 160.066 78.9216C160.072 78.9351 160.076 78.9502 160.076 78.9656C160.076 78.9809 160.073 78.996 160.068 79.0093C160.064 79.0206 160.058 79.0304 160.05 79.0379C160.042 79.0454 160.033 79.0503 160.023 79.0524L159.999 79.0539L158.44 79.1506L158.415 79.1521C158.4 79.1502 158.385 79.1415 158.374 79.1275C158.362 79.1135 158.355 79.095 158.353 79.0754C158.35 79.0554 158.353 79.0351 158.36 79.0174C158.365 79.0051 158.372 78.9948 158.381 78.9872C158.39 78.9796 158.401 78.975 158.412 78.9739L159.209 78.9244V78.9244Z" fill="white"/>
<path d="M152.152 83.0317C152.829 82.9669 152.983 83.5639 153.014 83.9918L152.465 84.0841C152.447 83.8287 152.388 83.5333 152.201 83.5469C152.052 83.563 152.02 83.7229 152.036 83.9418C152.055 84.2032 152.3 84.4789 152.543 84.7812C152.832 85.1537 153.121 85.5156 153.151 85.9271C153.188 86.4386 153.054 86.9048 152.438 86.9494C151.714 87.0019 151.577 86.4607 151.536 85.8887L152.085 85.7963C152.108 86.1145 152.163 86.4461 152.398 86.4291C152.565 86.417 152.615 86.2302 152.597 85.9897C152.579 85.7343 152.316 85.444 152.079 85.1361C151.785 84.764 151.506 84.3908 151.476 83.9785C151.446 83.5663 151.618 83.0786 152.152 83.0317Z" fill="white"/>
<path d="M153.565 86.8236L153.866 82.9475L154.555 82.8976L155.411 86.6899L154.864 86.7296L154.703 85.9545L154.161 85.9937L154.113 86.784L153.565 86.8236ZM154.332 84.1667L154.31 84.0693L154.278 84.0716L154.27 84.1713L154.196 85.3936L154.581 85.3657L154.332 84.1667Z" fill="white"/>
<path d="M156.32 84.6151L156.26 84.4415L156.229 84.4437L156.387 86.6193L155.871 86.6567L155.593 82.8224L156.093 82.7861L156.786 84.7442L156.846 84.9178L156.877 84.9156L156.719 82.7408L157.236 82.7034L157.514 86.5377L157.013 86.5739L156.32 84.6151Z" fill="white"/>
<path d="M158.573 86.4608L158.129 86.493L157.851 82.6587L158.295 82.6266C159.341 82.5561 159.446 82.9629 159.554 84.4648C159.663 85.9667 159.616 86.38 158.573 86.4608ZM158.651 85.8883C159.048 85.8596 159.067 85.7591 158.971 84.5018C158.874 83.2445 158.852 83.1523 158.455 83.181L158.651 85.8883Z" fill="white"/>
<path d="M161.076 86.2795L160.636 86.3114L159.842 82.5145L160.364 82.4767L160.733 84.453L160.752 84.5777L160.794 84.5747L160.801 84.4481L160.896 82.4382L161.303 82.4087L161.687 84.3839L161.712 84.5082L161.754 84.5052L161.755 84.3789L161.835 82.3702L162.358 82.3323L162.119 86.2039L161.682 86.2356L161.29 84.439L161.242 84.2172L161.221 84.2187L161.206 84.445L161.076 86.2795Z" fill="white"/>
<path d="M162.828 82.2983L163.391 82.2576L163.668 86.0918L163.105 86.1326L162.828 82.2983Z" fill="white"/>
<path d="M165.655 84.6257L165.693 85.153C165.693 85.153 165.758 85.9824 165.001 86.0371C164.245 86.0919 164.191 85.2618 164.191 85.2618L164.027 83.0033C164.027 83.0033 163.962 82.174 164.718 82.1192C165.474 82.0645 165.529 82.8945 165.529 82.8945L165.567 83.4211L165.044 83.4589L165.006 82.9324C165.006 82.9324 165.007 82.6486 164.772 82.6656C164.574 82.68 164.594 82.9623 164.594 82.9623L164.758 85.2207C164.758 85.2207 164.778 85.5023 164.976 85.4879C165.211 85.4709 165.17 85.1908 165.17 85.1908L165.132 84.6636L165.655 84.6257Z" fill="white"/>
<path d="M167.167 84.1604L166.73 84.1921L166.851 85.8613L166.287 85.9021L166.009 82.0679L166.573 82.027L166.688 83.6126L167.125 83.5809L167.011 81.9953L167.575 81.9545L167.852 85.7888L167.288 85.8296L167.167 84.1604Z" fill="white"/>
<path d="M157.648 89.0616C157.655 89.1159 157.649 89.1712 157.631 89.2228C157.613 89.2745 157.583 89.3212 157.543 89.3589C157.444 89.4435 157.319 89.4918 157.189 89.4958C157.058 89.5103 156.926 89.4943 156.802 89.4493L156.778 89.1823C156.855 89.21 156.935 89.2316 157.016 89.2468C157.073 89.2572 157.131 89.2603 157.189 89.256C157.24 89.2549 157.289 89.2381 157.33 89.208C157.345 89.1943 157.357 89.1769 157.364 89.1576C157.371 89.1382 157.373 89.1173 157.37 89.0969C157.369 89.0717 157.359 89.0478 157.342 89.0288C157.322 89.007 157.298 88.989 157.272 88.9757C157.213 88.9468 157.152 88.9216 157.09 88.9002C157.022 88.8776 156.956 88.8457 156.896 88.8056C156.853 88.7748 156.815 88.7358 156.787 88.6906C156.745 88.6199 156.727 88.5378 156.735 88.4561C156.742 88.3743 156.776 88.2972 156.83 88.2357C156.919 88.1546 157.034 88.108 157.154 88.1044C157.222 88.098 157.29 88.1002 157.357 88.1111C157.426 88.1231 157.495 88.1406 157.561 88.1634L157.49 88.3954C157.43 88.3757 157.369 88.3603 157.307 88.3494C157.26 88.3423 157.214 88.3407 157.167 88.3446C157.122 88.3456 157.08 88.3628 157.047 88.3929C157.034 88.4063 157.024 88.4225 157.018 88.4402C157.012 88.4579 157.01 88.4767 157.012 88.4953C157.014 88.5185 157.022 88.5407 157.036 88.5593C157.052 88.5797 157.073 88.5963 157.096 88.608C157.157 88.6382 157.22 88.6642 157.284 88.6859C157.386 88.7177 157.479 88.7714 157.558 88.8433C157.612 88.9036 157.644 88.9807 157.648 89.0616V89.0616Z" fill="white"/>
<path d="M158.497 89.3605L158.213 89.386L158.114 88.2822L157.751 88.3147L157.73 88.0782L158.741 87.9876L158.763 88.2241L158.399 88.2567L158.497 89.3605Z" fill="white"/>
<path d="M159.361 88.7643L159.407 89.2789L159.123 89.3044L159.003 87.9619L159.394 87.9269C159.576 87.9106 159.713 87.9316 159.807 87.9899C159.883 88.0469 159.936 88.1294 159.957 88.2224C159.977 88.3154 159.964 88.4126 159.918 88.4964C159.877 88.5648 159.818 88.6206 159.747 88.6576C159.976 88.9408 160.125 89.1236 160.194 89.2062L159.879 89.2344L159.512 88.7485L159.361 88.7643ZM159.341 88.5331L159.432 88.5249C159.502 88.5238 159.57 88.502 159.627 88.4623C159.648 88.4442 159.663 88.4212 159.672 88.3956C159.681 88.3699 159.683 88.3424 159.679 88.3156C159.679 88.289 159.671 88.2629 159.658 88.2401C159.644 88.2173 159.624 88.1985 159.601 88.1857C159.535 88.1603 159.464 88.1527 159.395 88.1636L159.308 88.1714L159.341 88.5331Z" fill="white"/>
<path d="M161.191 89.1192L160.419 89.1884L160.298 87.8459L161.07 87.7768L161.091 88.0095L160.603 88.0532L160.63 88.347L161.084 88.3063L161.105 88.5398L160.651 88.5805L160.682 88.9258L161.169 88.8821L161.191 89.1192Z" fill="white"/>
<path d="M162.298 89.0199L161.527 89.089L161.407 87.7466L162.178 87.6775L162.199 87.9102L161.712 87.9538L161.738 88.2477L162.192 88.207L162.213 88.4405L161.759 88.4811L161.79 88.8264L162.277 88.7828L162.298 89.0199Z" fill="white"/>
<path d="M163.151 88.9434L162.867 88.9689L162.768 87.8651L162.404 87.8977L162.383 87.6613L163.398 87.5703L163.42 87.8067L163.056 87.8393L163.151 88.9434Z" fill="white"/>
<defs>
<clipPath id="clip0_3119_3383">
<rect width="23.7772" height="6.56295" fill="white" transform="translate(89.6401 64.5734) rotate(-3.79414)"/>
</clipPath>
</defs>
</svg>
