<svg width="235" height="155" viewBox="0 0 235 155" fill="none" xmlns="http://www.w3.org/2000/svg">
<g clip-path="url(#clip0_3119_3445)">
<path d="M185.889 54.9705L225.003 91.9794C227.007 93.8755 226.721 97.1441 224.419 98.6642L184.848 124.792C182.713 126.201 179.889 125.955 178.03 124.197L139.169 87.4415C137.174 85.5545 137.446 82.3039 139.726 80.7738L179.036 54.3978C181.174 52.9638 184.019 53.2016 185.889 54.9705Z" fill="#16151B"/>
<path d="M18.0563 23.2379L21.5115 24.6776V95.509H18.6321L18.0563 23.2379Z" fill="#DA2305"/>
<rect x="24.3907" y="25.2535" width="2.87933" height="70.8314" fill="#DA2305"/>
<rect x="30.1494" y="25.2535" width="2.87933" height="70.8314" fill="#DA2305"/>
<rect x="35.9081" y="26.4052" width="2.87933" height="70.8314" fill="#DA2305"/>
<rect x="42.8185" y="27.5569" width="3.45519" height="70.8314" fill="#DA2305"/>
<rect x="49.7288" y="28.7086" width="4.03106" height="70.8314" fill="#DA2305"/>
<rect x="57.2151" y="31.0121" width="2.30346" height="70.8314" fill="#DA2305"/>
<path d="M70.46 32.7397L73.9152 33.6035V103.571H70.46V32.7397Z" fill="#DA2305"/>
<rect x="77.3702" y="35.0432" width="3.45519" height="70.8314" fill="#DA2305"/>
<path d="M84.2808 35.619L87.736 36.7707V106.45H84.2808V35.619Z" fill="#DA2305"/>
<path d="M107.315 40.5139L109.619 43.1053V109.906H107.315V40.5139Z" fill="#DA2305"/>
<path d="M109.619 41.6657L111.922 41.6656V110.482H109.619V41.6657Z" fill="#C32619"/>
<path d="M91.7671 36.7708L95.2223 38.4983V107.602H91.7671V36.7708Z" fill="#DA2305"/>
<path d="M99.2532 39.0741L103.284 41.0896V108.754H99.2532V39.0741Z" fill="#DA2305"/>
<rect x="62.9738" y="31.5879" width="3.45519" height="70.8314" fill="#DA2305"/>
<rect x="27.2701" y="25.2535" width="2.87933" height="70.8314" fill="#E3321D"/>
<rect x="38.7875" y="26.981" width="4.03106" height="70.8314" fill="#E3321D"/>
<rect x="53.76" y="31.0121" width="3.45519" height="70.8314" fill="#E3321D"/>
<path d="M66.4291 32.1638L70.4601 33.0276V102.995H66.4291V32.1638Z" fill="#E3321D"/>
<path d="M80.8256 35.0432L84.2808 35.6191V105.875H80.8256V35.0432Z" fill="#E3321D"/>
<path d="M95.2222 37.6346L99.8291 38.7864V107.602H95.2222V37.6346Z" fill="#E3321D"/>
<rect x="21.5116" y="24.6776" width="2.87933" height="70.8314" fill="#C32619"/>
<path d="M33.0287 25.2535H35.908V97.5246L33.0287 96.085V25.2535Z" fill="#C32619"/>
<rect x="46.2736" y="29.2844" width="3.45519" height="70.8314" fill="#C32619"/>
<path d="M59.5187 32.7397H62.9739V103.571L59.5187 102.132V32.7397Z" fill="#C32619"/>
<rect x="73.9153" y="34.4673" width="3.45519" height="70.8314" fill="#C32619"/>
<rect x="87.736" y="36.7708" width="4.03106" height="70.8314" fill="#C32619"/>
<path d="M103.284 39.65L107.315 41.3776V108.754H103.284V39.65Z" fill="#C32619"/>
<path d="M18.0564 21.2224L119.531 42.6387L119.531 45.6967L18.0564 24.039L18.0564 21.2224Z" fill="#C32619"/>
<path d="M19.1301 93.7814L120.194 109.33L120.378 112.382L19.1302 96.6607L19.1301 93.7814Z" fill="#D22723"/>
<path d="M16.9047 22.5299L18.0564 21.2224L19.2081 96.0849L18.0564 96.6608L16.9047 22.5299Z" fill="#470200"/>
<path d="M18.0563 96.6608L18.8251 96.0687L120.272 111.921L106.452 110.482L18.0563 96.6608Z" fill="#470200"/>
<path d="M25.6941 62.5773L23.8498 60.6388L23.9898 53.0312L25.9041 51.1652L27.312 51.1918L27.277 53.0933L26.6135 53.0808L25.8552 53.8222L25.743 59.9204L26.4736 60.6883L27.137 60.7008L27.102 62.6039L25.6941 62.5773ZM29.4655 62.6486L28.0369 62.6216L28.0719 60.7185L28.7195 60.7307L29.4937 59.9912L29.6058 53.901L28.8752 53.1315L28.2165 53.1191L28.2515 51.2176L29.6594 51.2442L31.5021 53.1811L31.3622 60.7887L29.4655 62.6486Z" fill="white"/>
<path d="M34.1805 63.7039L34.5695 52.2966L36.448 52.3624L36.059 63.7697L34.1805 63.7039ZM36.9967 63.8025L37.0615 61.9002L41.7562 62.0645L41.6914 63.9668L36.9967 63.8025Z" fill="white"/>
<path d="M99.2534 74.7883L99.6423 63.381L101.521 63.4467L101.132 74.854L99.2534 74.7883ZM102.07 74.8868L102.134 72.9845L106.829 73.1488L106.764 75.0511L102.07 74.8868Z" fill="white"/>
<path d="M68.589 78.5863L69.3198 72.307L70.3541 72.4306L69.6223 78.7178L68.589 78.5863ZM70.7502 73.5317L70.8712 72.4923L73.4584 72.8014L73.3365 73.8487L70.7502 73.5317ZM70.4453 76.1516L70.5672 75.1043L72.2179 75.3015L72.096 76.3488L70.4453 76.1516ZM70.1404 78.7716L70.2625 77.7226L72.8497 78.0317L72.7276 79.0806L70.1404 78.7716Z" fill="white"/>
<path d="M57.699 77.0123L58.1067 70.703L59.1459 70.7719L58.7377 77.0892L57.699 77.0123ZM60.7279 77.2131L59.7891 74.5071L59.4216 74.4827L59.4896 73.4304L60.6365 73.5064L61.077 73.1152L61.1251 72.3708L60.7386 71.9263L59.5917 71.8503L59.6592 70.8059L61.2195 70.9094L62.1907 72.0307L62.0887 73.6108L60.9815 74.5942L61.8506 77.2956L60.7279 77.2131Z" fill="white"/>
<path d="M73.7449 79.3881L74.1526 73.0789L75.1918 73.1478L74.7836 79.465L73.7449 79.3881ZM76.7738 79.589L75.835 76.883L75.4675 76.8586L75.5355 75.8062L76.6824 75.8823L77.1229 75.491L77.171 74.7467L76.7845 74.3022L75.6376 74.2261L75.7051 73.1818L77.2654 73.2853L78.2366 74.4065L78.1346 75.9866L77.0274 76.9701L77.8965 79.6715L76.7738 79.589Z" fill="white"/>
<path d="M80.6221 77.6098L79.6166 76.5153L79.6766 74.933L80.7572 73.9196L81.5377 73.95L81.4978 75.0038L81.1392 74.9899L80.7007 75.4104L80.6738 76.1188L81.0792 76.5722L81.4378 76.5862L81.3978 77.64L80.6221 77.6098ZM80.5222 80.246L79.5167 79.1499L79.5326 78.7322L80.5732 78.7727L80.9794 79.2068L81.3379 79.2207L81.2979 80.2761L80.5222 80.246ZM82.7891 75.4724L82.4004 75.0389L82.0244 75.0243L82.0641 73.9785L82.8446 74.0089L83.8453 75.1032L83.8294 75.5209L82.7891 75.4724ZM82.6051 80.327L81.8246 80.2966L81.8646 79.2412L82.2326 79.2555L82.6609 78.8539L82.6892 78.1085L82.2925 77.6748L81.9245 77.6605L81.9644 76.6066L82.7449 76.637L83.7457 77.7313L83.6857 79.3121L82.6051 80.327Z" fill="white"/>
<path d="M64.4692 77.9216L63.5332 76.7671L63.9405 72.5674L65.0803 71.6211L65.8592 71.6987L65.7574 72.7482L65.3908 72.7117L64.9397 73.0868L64.6139 76.4466L64.9843 76.9035L65.3509 76.94L65.2489 77.9911L64.4692 77.9216ZM67.011 73.293L66.6311 72.8352L66.274 72.7996L66.375 71.7581L67.1523 71.8355L68.0886 72.9883L68.0482 73.4043L67.011 73.293ZM66.5421 78.1279L65.7648 78.0505L65.8667 76.9994L66.2238 77.0349L66.6844 76.6608L66.7564 75.9184L65.9791 75.8411L66.0703 74.9003L67.8856 75.081L67.6821 77.1801L66.5421 78.1279Z" fill="white"/>
<path d="M71.6118 70.1281V58.714H73.4899V70.1281H71.6118ZM77.2476 70.1281V65.3727H74.4297V63.4693H77.2476V58.714H79.1256V70.1281H77.2476Z" fill="white"/>
<path d="M82.7036 71.8781L80.8256 69.9746V62.3658L82.7036 60.464H84.1134V62.3658H83.4498L82.7036 63.1214V69.2207L83.4498 69.9746H84.1134V71.8781H82.7036ZM86.4772 71.8781H85.0484V69.9746H85.6961L86.4581 69.2207V63.1294L85.7136 62.3738H85.0484V60.472H86.4581L88.3362 62.3738V69.9827L86.4772 71.8781Z" fill="white"/>
<path d="M91.9174 73.6283L90.0393 71.7249V64.116L91.9174 62.2142H93.3271V64.116H92.6635L91.9174 64.8716V70.9709L92.6635 71.7249H93.3271V73.6283H91.9174ZM95.6909 73.6283H94.2622V71.7249H94.9099L95.6719 70.9709V64.8797L94.9273 64.1241H94.2622V62.2223H95.6719L97.5499 64.1241V71.7329L95.6909 73.6283Z" fill="white"/>
<path d="M43.2075 65.3284L43.6428 53.9229L45.5195 53.9964L45.0841 65.4019L43.2075 65.3284ZM48.8374 65.549L46.0233 65.4387L46.0958 63.5367L48.1502 63.6172L48.9388 62.8935L49.1711 56.8068L48.4401 56.0221L46.3858 55.9416L46.4583 54.0412L49.2725 54.1514L51.0721 56.1171L50.7819 63.7203L48.8374 65.549Z" fill="white"/>
<path d="M55.0382 62.4054L53.21 60.4528L53.2838 57.6003L55.2104 55.7489L56.6181 55.7863L56.5689 57.6875L55.9214 57.6703L55.1409 58.4376L55.1076 59.7232L55.8476 60.5228L56.4951 60.54L56.4459 62.4428L55.0382 62.4054ZM54.9152 67.1591L53.087 65.2065L53.1065 64.4528L54.9839 64.5026L55.7246 65.2765L56.3721 65.2937L56.3229 67.1965L54.9152 67.1591ZM58.9011 58.5133L58.1922 57.7386L57.5082 57.7205L57.5574 55.8193L58.9698 55.8568L60.7996 57.8079L60.7801 58.5632L58.9011 58.5133ZM58.6746 67.267L57.2622 67.2295L57.3114 65.3267L57.9748 65.3443L58.7385 64.6104L58.7733 63.2669L58.0485 62.4934L57.3851 62.4758L57.4346 60.565L58.847 60.6025L60.6768 62.5551L60.603 65.4061L58.6746 67.267Z" fill="white"/>
<path d="M45.6596 75.3657L46.2961 69.0759L47.3321 69.1835L46.6948 75.4813L45.6596 75.3657ZM48.7691 75.6887L47.2136 75.5271L47.3199 74.4764L48.4633 74.5952L48.9176 74.2222L48.9927 73.4801L48.6226 73.0215L47.4792 72.9028L47.5854 71.8537L48.7287 71.9724L49.1832 71.5979L49.2583 70.8558L48.8882 70.3972L47.7448 70.2784L47.8501 69.2373L49.4057 69.3989L50.3355 70.5556L50.1761 72.1309L49.6106 72.5941L50.0755 73.1724L49.9162 74.7461L48.7691 75.6887Z" fill="white"/>
<path d="M52.4311 76.2648L51.4753 75.1271L51.8931 69.8776L52.9327 69.9625L52.5474 74.8034L52.9257 75.2536L53.2928 75.2836L53.209 76.3364L52.4311 76.2648ZM54.5072 76.4344L53.7287 76.3708L53.8125 75.318L54.1796 75.348L54.6242 74.965L55.0088 70.1321L56.0484 70.217L55.63 75.4745L54.5072 76.4344Z" fill="white"/>
<path d="M64.2759 68.3778L62.3978 66.4744V58.8656L64.2759 56.9637H65.684V58.8656H65.0204L64.2759 59.6211V65.7204L65.0204 66.4744H65.684V68.3778H64.2759ZM68.032 59.6292L67.2716 58.8736H66.6238V56.9718H68.032L69.9164 58.8656V59.6211L68.032 59.6292ZM68.032 68.3859H66.6238V66.4824H67.2716L68.032 65.7285H69.9164V66.4824L68.032 68.3859Z" fill="white"/>
<path d="M120.486 117.585L117.703 9.37392L133.529 12.428L145.961 131.772C146.887 140.661 138.74 147.792 130.052 145.697L26.477 120.721C26.3937 120.701 26.3059 120.717 26.2355 120.766C26.1651 120.815 26.1187 120.891 26.108 120.976L24.7781 131.532L4.03901 108.774L29.2939 95.2327L27.5481 108.016C27.526 108.177 27.6367 108.327 27.7976 108.353L114.789 122.554C117.826 123.05 120.565 120.661 120.486 117.585Z" fill="#FFC634" stroke="#E2B131" stroke-width="0.601607" stroke-linecap="square" stroke-linejoin="round"/>
<g filter="url(#filter0_d_3119_3445)">
<circle r="1.40123" transform="matrix(-0.504563 -0.863375 -0.863375 0.504563 123.053 19.5625)" fill="#FFEF98"/>
</g>
<g filter="url(#filter1_d_3119_3445)">
<circle r="1.40123" transform="matrix(-0.504563 -0.863375 -0.863375 0.504563 123.053 28.2005)" fill="#FFEF98"/>
</g>
<g filter="url(#filter2_d_3119_3445)">
<circle r="1.40123" transform="matrix(-0.504563 -0.863375 -0.863375 0.504563 123.053 38.5659)" fill="#FFEF98"/>
</g>
<g filter="url(#filter3_d_3119_3445)">
<circle r="1.40123" transform="matrix(-0.504563 -0.863375 -0.863375 0.504563 123.629 48.3556)" fill="#FFEF98"/>
</g>
<g filter="url(#filter4_d_3119_3445)">
<circle r="1.40123" transform="matrix(-0.504563 -0.863375 -0.863375 0.504563 123.629 60.4489)" fill="#FFEF98"/>
</g>
<g filter="url(#filter5_d_3119_3445)">
<circle r="1.40123" transform="matrix(-0.504563 -0.863375 -0.863375 0.504563 124.205 70.8146)" fill="#FFEF98"/>
</g>
<g filter="url(#filter6_d_3119_3445)">
<circle r="1.40123" transform="matrix(-0.504563 -0.863375 -0.863375 0.504563 124.78 83.4836)" fill="#FFEF98"/>
</g>
<g filter="url(#filter7_d_3119_3445)">
<circle r="1.40123" transform="matrix(-0.504563 -0.863375 -0.863375 0.504563 124.78 96.1525)" fill="#FFEF98"/>
</g>
<g filter="url(#filter8_d_3119_3445)">
<circle r="1.40123" transform="matrix(-0.504563 -0.863375 -0.863375 0.504563 125.356 108.822)" fill="#FFEF98"/>
</g>
<g filter="url(#filter9_d_3119_3445)">
<circle r="1.40123" transform="matrix(-0.504563 -0.863375 -0.863375 0.504563 124.205 120.915)" fill="#FFEF98"/>
</g>
<g filter="url(#filter10_d_3119_3445)">
<circle r="1.40123" transform="matrix(-0.504563 -0.863375 -0.863375 0.504563 114.991 126.098)" fill="#FFEF98"/>
</g>
<g filter="url(#filter11_d_3119_3445)">
<circle r="1.40123" transform="matrix(-0.504563 -0.863375 -0.863375 0.504563 101.17 123.218)" fill="#FFEF98"/>
</g>
<g filter="url(#filter12_d_3119_3445)">
<circle r="1.40123" transform="matrix(-0.504563 -0.863375 -0.863375 0.504563 86.7734 120.339)" fill="#FFEF98"/>
</g>
<g filter="url(#filter13_d_3119_3445)">
<circle r="1.40123" transform="matrix(-0.504563 -0.863375 -0.863375 0.504563 72.9527 118.036)" fill="#FFEF98"/>
</g>
<g filter="url(#filter14_d_3119_3445)">
<circle r="1.40123" transform="matrix(-0.504563 -0.863375 -0.863375 0.504563 59.1319 115.732)" fill="#FFEF98"/>
</g>
<g filter="url(#filter15_d_3119_3445)">
<circle r="1.40123" transform="matrix(-0.504563 -0.863375 -0.863375 0.504563 45.3112 113.428)" fill="#FFEF98"/>
</g>
<g filter="url(#filter16_d_3119_3445)">
<circle r="1.40123" transform="matrix(-0.504563 -0.863375 -0.863375 0.504563 32.0661 111.125)" fill="#FFEF98"/>
</g>
<g filter="url(#filter17_d_3119_3445)">
<circle r="1.40123" transform="matrix(-0.504563 -0.863375 -0.863375 0.504563 24.0042 103.063)" fill="#FFEF98"/>
</g>
<g filter="url(#filter18_d_3119_3445)">
<circle r="1.40123" transform="matrix(-0.504563 -0.863375 -0.863375 0.504563 17.6695 105.942)" fill="#FFEF98"/>
</g>
<g filter="url(#filter19_d_3119_3445)">
<circle r="1.40123" transform="matrix(-0.504563 -0.863375 -0.863375 0.504563 11.3352 108.822)" fill="#FFEF98"/>
</g>
<g filter="url(#filter20_d_3119_3445)">
<circle r="1.40123" transform="matrix(-0.504563 -0.863375 -0.863375 0.504563 15.9421 115.156)" fill="#FFEF98"/>
</g>
<g filter="url(#filter21_d_3119_3445)">
<circle r="1.40123" transform="matrix(-0.504563 -0.863375 -0.863375 0.504563 22.2764 122.067)" fill="#FFEF98"/>
</g>
<g filter="url(#filter22_d_3119_3445)">
<circle r="1.40123" transform="matrix(-0.504563 -0.863375 -0.863375 0.504563 139.753 111.125)" fill="#FFEF98"/>
</g>
<g filter="url(#filter23_d_3119_3445)">
<circle r="1.40123" transform="matrix(-0.504563 -0.863375 -0.863375 0.504563 140.905 126.098)" fill="#FFEF98"/>
</g>
<g filter="url(#filter24_d_3119_3445)">
<circle r="1.40123" transform="matrix(-0.504563 -0.863375 -0.863375 0.504563 138.025 137.615)" fill="#FFEF98"/>
</g>
<g filter="url(#filter25_d_3119_3445)">
<circle r="1.40123" transform="matrix(-0.504563 -0.863375 -0.863375 0.504563 125.932 139.918)" fill="#FFEF98"/>
</g>
<g filter="url(#filter26_d_3119_3445)">
<circle r="1.40123" transform="matrix(-0.504563 -0.863375 -0.863375 0.504563 112.687 136.463)" fill="#FFEF98"/>
</g>
<g filter="url(#filter27_d_3119_3445)">
<circle r="1.40123" transform="matrix(-0.504563 -0.863375 -0.863375 0.504563 98.2907 133.008)" fill="#FFEF98"/>
</g>
<g filter="url(#filter28_d_3119_3445)">
<circle r="1.40123" transform="matrix(-0.504563 -0.863375 -0.863375 0.504563 85.046 130.129)" fill="#FFEF98"/>
</g>
<g filter="url(#filter29_d_3119_3445)">
<circle r="1.40123" transform="matrix(-0.504563 -0.863375 -0.863375 0.504563 70.6492 126.673)" fill="#FFEF98"/>
</g>
<g filter="url(#filter30_d_3119_3445)">
<circle r="1.40123" transform="matrix(-0.504563 -0.863375 -0.863375 0.504563 56.8283 123.794)" fill="#FFEF98"/>
</g>
<g filter="url(#filter31_d_3119_3445)">
<circle r="1.40123" transform="matrix(-0.504563 -0.863375 -0.863375 0.504563 43.5836 120.915)" fill="#FFEF98"/>
</g>
<g filter="url(#filter32_d_3119_3445)">
<circle r="1.40123" transform="matrix(-0.504563 -0.863375 -0.863375 0.504563 31.4902 118.611)" fill="#FFEF98"/>
</g>
<g filter="url(#filter33_d_3119_3445)">
<circle r="1.40123" transform="matrix(-0.504563 -0.863375 -0.863375 0.504563 138.601 97.3044)" fill="#FFEF98"/>
</g>
<g filter="url(#filter34_d_3119_3445)">
<circle r="1.40123" transform="matrix(-0.504563 -0.863375 -0.863375 0.504563 136.874 84.6353)" fill="#FFEF98"/>
</g>
<g filter="url(#filter35_d_3119_3445)">
<circle r="1.40123" transform="matrix(-0.504563 -0.863375 -0.863375 0.504563 135.722 72.542)" fill="#FFEF98"/>
</g>
<g filter="url(#filter36_d_3119_3445)">
<circle r="1.40123" transform="matrix(-0.504563 -0.863375 -0.863375 0.504563 129.963 18.9866)" fill="#FFEF98"/>
</g>
<g filter="url(#filter37_d_3119_3445)">
<circle r="1.40123" transform="matrix(-0.504563 -0.863375 -0.863375 0.504563 131.115 28.2005)" fill="#FFEF98"/>
</g>
<g filter="url(#filter38_d_3119_3445)">
<circle r="1.40123" transform="matrix(-0.504563 -0.863375 -0.863375 0.504563 132.842 37.9901)" fill="#FFEF98"/>
</g>
<g filter="url(#filter39_d_3119_3445)">
<circle r="1.40123" transform="matrix(-0.504563 -0.863375 -0.863375 0.504563 133.994 48.9317)" fill="#FFEF98"/>
</g>
<g filter="url(#filter40_d_3119_3445)">
<circle r="1.40123" transform="matrix(-0.504563 -0.863375 -0.863375 0.504563 135.146 59.8731)" fill="#FFEF98"/>
</g>
<rect x="140.832" y="83.1476" width="4.77007" height="1.83543" transform="rotate(1.56027 140.832 83.1476)" fill="#C4C4C4"/>
<path d="M195.418 53.3078L230.763 87.5797C232.718 89.4757 232.431 92.6912 230.17 94.2096L189.835 121.298C187.717 122.721 184.899 122.502 183.026 120.77L147.038 87.4885C145.021 85.6229 145.258 82.3672 147.523 80.8128L188.47 52.7204C190.631 51.238 193.537 51.4836 195.418 53.3078Z" fill="#00A960" stroke="white" stroke-width="1.2848"/>
<path d="M189.051 74.6686L198.222 75.2779C198.246 75.2799 198.268 75.289 198.288 75.3045C198.308 75.32 198.324 75.3414 198.336 75.367C198.349 75.3926 198.356 75.4217 198.357 75.4519C198.359 75.4821 198.355 75.5126 198.346 75.5409C198.32 75.6246 198.288 75.7056 198.252 75.7832C198.163 75.9655 198.05 76.1281 197.92 76.2644C197.806 76.3928 197.682 76.5053 197.55 76.5997C197.43 76.6809 197.295 76.758 197.182 76.8301C197.023 76.9173 196.853 76.9644 196.682 76.9689C196.596 76.9632 196.511 76.9575 196.437 76.9526L181.452 75.9571C181.275 75.95 181.101 75.9073 180.936 75.8305C180.888 75.8084 180.841 75.7829 180.796 75.7542C180.568 75.6043 180.358 75.4146 180.172 75.1904C180.059 75.0557 179.962 74.9014 179.883 74.7317C179.826 74.608 179.783 74.4744 179.755 74.3346C179.748 74.2915 179.751 74.2463 179.763 74.2045C179.774 74.1629 179.794 74.1263 179.821 74.1C179.848 74.0737 179.881 74.0592 179.915 74.0585L189.083 74.6676L189.051 74.6686Z" fill="white"/>
<path d="M189.579 68.1325L191.863 68.2842C191.907 68.288 191.95 68.2995 191.991 68.3182C192.225 68.4261 192.442 68.5871 192.631 68.7939C192.744 68.9216 192.843 69.0684 192.926 69.2307C192.924 69.2498 192.94 69.2795 192.964 69.2843C192.989 69.2217 193.003 69.1527 193.004 69.083C193.011 69.0178 193.015 68.9521 193.016 68.8863C193.01 68.8164 192.995 68.7486 192.972 68.6859C192.948 68.6278 192.922 68.5717 192.893 68.5183C192.862 68.4621 192.826 68.4151 192.792 68.3651C192.793 68.346 192.81 68.3503 192.818 68.3508L197.012 68.6294C197.171 68.6373 197.327 68.6756 197.476 68.7431C197.532 68.7661 197.586 68.7953 197.638 68.8303C197.87 68.9814 198.083 69.1746 198.271 69.4043C198.38 69.5347 198.475 69.6846 198.551 69.8497C198.608 69.977 198.651 70.1137 198.681 70.2565C198.689 70.2886 198.69 70.3231 198.685 70.3566C198.68 70.3902 198.669 70.4218 198.652 70.4486C198.635 70.4754 198.613 70.4965 198.589 70.5099C198.564 70.5234 198.538 70.5287 198.512 70.5256L180.18 69.3077C180.156 69.3048 180.133 69.2948 180.113 69.2783C180.093 69.2619 180.076 69.2397 180.064 69.2132C180.052 69.1868 180.046 69.1569 180.044 69.126C180.043 69.0951 180.047 69.064 180.056 69.0352C180.098 68.9012 180.153 68.775 180.222 68.6607C180.33 68.4833 180.459 68.3275 180.602 68.1987C180.808 68.0126 181.031 67.8604 181.264 67.7458C181.439 67.6618 181.623 67.62 181.808 67.6226L185.429 67.8631C185.492 67.8673 185.554 67.8843 185.613 67.9136C185.829 68.0198 186.03 68.1708 186.207 68.3608C186.326 68.4905 186.429 68.6421 186.513 68.8111L186.542 68.864C186.6 68.7058 186.611 68.5273 186.573 68.3628C186.532 68.1963 186.456 68.049 186.354 67.9373L186.385 67.9394L188.633 68.0887C188.692 68.0934 188.75 68.109 188.804 68.1352C189.039 68.2492 189.255 68.4167 189.442 68.6299C189.543 68.7478 189.631 68.882 189.705 69.0296L189.736 69.089C189.758 69.0904 189.758 69.0904 189.763 69.0588C189.799 68.9168 189.805 68.7655 189.78 68.6216C189.755 68.4778 189.699 68.3469 189.619 68.2434L189.564 68.1697L189.579 68.1325Z" fill="white"/>
<path d="M180.348 71.0295C180.498 71.0488 180.643 71.1038 180.776 71.1917C180.887 71.2674 180.992 71.3588 181.088 71.4641C181.162 71.5435 181.24 71.6178 181.32 71.6865C181.383 71.7398 181.449 71.7857 181.518 71.8239C181.701 71.9317 181.911 71.9456 182.106 71.8629C182.195 71.8222 182.28 71.7703 182.361 71.7079C182.428 71.6582 182.493 71.6052 182.558 71.5521C182.64 71.4808 182.726 71.4173 182.815 71.3622C182.954 71.2816 183.103 71.2412 183.253 71.244C183.403 71.2468 183.549 71.2927 183.682 71.3784C183.799 71.4489 183.908 71.5386 184.007 71.6453C184.072 71.7133 184.139 71.7846 184.206 71.8464C184.298 71.9355 184.399 72.0056 184.508 72.0544C184.663 72.131 184.834 72.1424 184.998 72.0869C185.086 72.0542 185.171 72.0086 185.252 71.9509C185.334 71.8895 185.415 71.8247 185.495 71.76C185.583 71.6883 185.675 71.6252 185.77 71.5712C185.907 71.4908 186.055 71.4501 186.204 71.4523C186.354 71.4545 186.499 71.4995 186.632 71.5839C186.757 71.6606 186.873 71.7582 186.977 71.8744C187.056 71.9627 187.14 72.0438 187.228 72.1172C187.302 72.177 187.382 72.2261 187.465 72.2635C187.624 72.3441 187.801 72.3559 187.969 72.297C188.074 72.2562 188.174 72.1998 188.269 72.1291C188.339 72.0795 188.406 72.0235 188.474 71.9674C188.582 71.8764 188.698 71.8017 188.819 71.7451C188.94 71.6853 189.068 71.657 189.196 71.6618C189.348 71.6709 189.496 71.7243 189.628 71.818C189.733 71.8903 189.832 71.977 189.922 72.0764C189.992 72.1479 190.061 72.2194 190.133 72.2879C190.206 72.3545 190.285 72.4099 190.368 72.4532C190.538 72.5441 190.728 72.5568 190.907 72.489C191.01 72.4513 191.109 72.398 191.202 72.3303C191.277 72.2747 191.352 72.2159 191.424 72.1539C191.573 72.0302 191.737 71.9399 191.908 71.8866C192.132 71.8191 192.364 71.8537 192.566 71.9845C192.68 72.0596 192.787 72.1511 192.886 72.2573C192.957 72.3322 193.029 72.407 193.103 72.4756C193.176 72.5437 193.255 72.5993 193.339 72.641C193.511 72.7354 193.705 72.7482 193.887 72.6774C193.987 72.64 194.083 72.5876 194.175 72.5214L194.391 72.3542C194.527 72.24 194.674 72.1522 194.828 72.0933C194.953 72.0462 195.084 72.0314 195.212 72.0498C195.341 72.0682 195.464 72.1193 195.576 72.2004C195.678 72.2715 195.774 72.3558 195.863 72.4519C195.932 72.5266 196.004 72.5983 196.076 72.6667C196.149 72.734 196.228 72.7905 196.311 72.8353C196.48 72.9277 196.67 72.9403 196.85 72.871C196.966 72.8292 197.079 72.7671 197.183 72.6862C197.247 72.6395 197.31 72.5863 197.374 72.5333C197.521 72.4109 197.682 72.3224 197.85 72.2718C197.993 72.2296 198.14 72.2285 198.281 72.2686C198.321 72.2761 198.357 72.3039 198.381 72.346C198.405 72.388 198.415 72.441 198.409 72.4937L198.401 72.6365C198.399 72.6651 198.393 72.6931 198.382 72.7187C198.372 72.7444 198.357 72.767 198.339 72.785C198.322 72.8031 198.302 72.8163 198.28 72.8237C198.258 72.8311 198.236 72.8325 198.214 72.8279L198.192 72.8265C198.051 72.7964 197.906 72.8153 197.771 72.8813C197.669 72.9318 197.572 72.9969 197.481 73.0754C197.375 73.1672 197.264 73.2482 197.149 73.3178C197.023 73.3947 196.89 73.447 196.753 73.473C196.552 73.508 196.348 73.4713 196.165 73.3671C196.047 73.3008 195.936 73.2165 195.834 73.1158C195.773 73.0608 195.718 72.9998 195.663 72.9419C195.597 72.8722 195.528 72.808 195.456 72.7498C195.37 72.6812 195.273 72.6374 195.172 72.6214C195.071 72.6053 194.968 72.6174 194.869 72.6567C194.753 72.7035 194.642 72.7712 194.54 72.8578L194.364 72.999C194.254 73.0817 194.139 73.1508 194.019 73.2054C193.735 73.3329 193.426 73.3124 193.16 73.1483C193.011 73.0554 192.872 72.9392 192.746 72.8023L192.651 72.7037C192.596 72.649 192.538 72.5973 192.479 72.5489C192.397 72.4844 192.305 72.443 192.208 72.4273C192.112 72.4116 192.014 72.4219 191.919 72.4575C191.798 72.5024 191.681 72.571 191.575 72.6608C191.515 72.7078 191.458 72.7582 191.397 72.8018C191.287 72.8894 191.169 72.9597 191.047 73.0111C190.765 73.1389 190.459 73.1186 190.195 72.9545C190.044 72.8632 189.903 72.7468 189.776 72.6082L189.621 72.4514C189.56 72.3904 189.493 72.3399 189.422 72.3011C189.275 72.2182 189.109 72.2071 188.954 72.2701C188.879 72.2998 188.806 72.3409 188.737 72.3927C188.681 72.4335 188.626 72.4777 188.572 72.5218C188.426 72.6419 188.27 72.7385 188.107 72.8095C187.966 72.8748 187.818 72.9035 187.67 72.8937C187.523 72.8839 187.379 72.8358 187.248 72.7524C187.099 72.6603 186.961 72.5441 186.836 72.4065C186.783 72.352 186.73 72.2944 186.674 72.2429C186.575 72.1489 186.461 72.0828 186.34 72.0487C186.223 72.0119 186.099 72.0169 185.982 72.0632C185.873 72.1127 185.768 72.1795 185.67 72.2622L185.466 72.4238C185.361 72.5033 185.25 72.5685 185.134 72.6184C184.852 72.7444 184.547 72.7241 184.282 72.5618C184.135 72.4684 183.997 72.3523 183.871 72.2159C183.818 72.1614 183.765 72.1069 183.709 72.0554C183.612 71.962 183.501 71.8951 183.382 71.8585C183.265 71.8208 183.142 71.8247 183.025 71.8699C182.945 71.9018 182.868 71.9458 182.795 72.0011C182.731 72.0478 182.671 72.098 182.609 72.148C182.471 72.2667 182.323 72.3638 182.169 72.4373C181.999 72.5106 181.821 72.5335 181.646 72.5045C181.532 72.4831 181.422 72.4404 181.319 72.3777C181.168 72.2848 181.027 72.1684 180.898 72.0312C180.845 71.9767 180.795 71.9192 180.739 71.8709C180.641 71.7776 180.528 71.7116 180.409 71.6769C180.339 71.6612 180.267 71.6564 180.196 71.6628L180.14 71.6591C180.102 71.6543 180.068 71.632 180.044 71.5962C180.019 71.5605 180.006 71.514 180.007 71.4655C180.01 71.402 180.014 71.3386 180.018 71.2751C180.021 71.2301 180.037 71.1876 180.062 71.1554C180.087 71.1231 180.12 71.1033 180.155 71.0994C180.23 71.0375 180.289 71.0351 180.348 71.0295Z" fill="white"/>
<path d="M189.08 74.0081L180.266 73.4226C180.21 73.4157 180.159 73.3811 180.122 73.3261C180.086 73.271 180.068 73.1996 180.071 73.1262C180.069 73.0557 180.086 72.9859 180.121 72.9296C180.155 72.8733 180.203 72.8344 180.257 72.82L180.306 72.8233L197.958 73.9959C198.009 74.0035 198.056 74.0345 198.09 74.0835C198.125 74.1325 198.144 74.1962 198.145 74.2632C198.148 74.3308 198.133 74.3984 198.102 74.4545C198.072 74.5106 198.027 74.5516 197.976 74.5705C197.955 74.5721 197.933 74.5707 197.912 74.5662L189.099 73.9807L189.08 74.0081Z" fill="white"/>
<path d="M195.471 71.5945L192.932 71.4259C192.9 71.4269 192.868 71.4248 192.837 71.4195C192.786 71.4085 192.74 71.3739 192.708 71.322C192.676 71.2701 192.66 71.2045 192.662 71.1372C192.662 71.0959 192.668 71.0547 192.681 71.0163C192.693 70.9779 192.712 70.9433 192.736 70.9147C192.759 70.8861 192.787 70.8642 192.818 70.8505C192.848 70.8368 192.88 70.8316 192.912 70.8353L198.115 71.1809C198.154 71.1873 198.191 71.2067 198.222 71.2373C198.253 71.2678 198.277 71.3084 198.292 71.3551C198.307 71.4019 198.313 71.4532 198.308 71.5042C198.303 71.5552 198.289 71.6042 198.265 71.6464C198.248 71.6822 198.225 71.7121 198.197 71.7336C198.169 71.7551 198.137 71.7674 198.105 71.7695L198.002 71.7627L195.471 71.5945Z" fill="white"/>
<path d="M183.041 70.7688L180.515 70.6009C180.481 70.602 180.448 70.5997 180.414 70.5943C180.363 70.5825 180.317 70.5472 180.285 70.4948C180.253 70.4424 180.237 70.3764 180.24 70.3088C180.24 70.2661 180.248 70.2237 180.261 70.1844C180.275 70.1452 180.295 70.11 180.321 70.0814C180.346 70.0528 180.375 70.0315 180.407 70.0187C180.439 70.006 180.472 70.0023 180.505 70.0078L185.71 70.3536C185.746 70.3646 185.78 70.3863 185.808 70.4172C185.837 70.4481 185.859 70.4873 185.874 70.5317C185.888 70.5761 185.895 70.6245 185.893 70.6733C185.89 70.722 185.879 70.7697 185.861 70.8128C185.843 70.8499 185.818 70.8812 185.79 70.9042C185.761 70.9272 185.728 70.9412 185.695 70.9451L185.592 70.9382L183.041 70.7688Z" fill="white"/>
<path d="M189.285 70.5815L191.897 70.7551C191.936 70.7627 191.972 70.7832 192.003 70.8144C192.033 70.8457 192.056 70.8867 192.071 70.9337C192.085 70.9806 192.09 71.0319 192.084 71.0826C192.079 71.1333 192.064 71.1817 192.04 71.2233C192.022 71.2587 191.998 71.2883 191.97 71.3097C191.941 71.3311 191.91 71.3436 191.878 71.3462L191.797 71.3409L186.69 71.0016L186.609 70.9962C186.56 70.9834 186.516 70.9486 186.485 70.8977C186.454 70.8468 186.438 70.7831 186.439 70.7174C186.439 70.6506 186.455 70.5848 186.486 70.5294C186.507 70.4912 186.535 70.4602 186.568 70.4391C186.601 70.4179 186.636 70.4073 186.672 70.408L189.285 70.5815V70.5815Z" fill="white"/>
<path d="M164.641 81.1282C166.868 81.2004 167.119 83.2307 167.041 84.6527L165.219 84.7252C165.265 83.8764 165.199 82.8795 164.584 82.8451C164.093 82.8351 163.923 83.3484 163.883 84.0755C163.836 84.9441 164.518 85.9555 165.181 87.053C165.965 88.4012 166.756 89.7149 166.681 91.0824C166.589 92.7824 165.958 94.2606 163.939 94.1478C161.563 94.015 161.344 92.1756 161.447 90.2746L163.27 90.2022C163.212 91.2594 163.254 92.3745 164.024 92.4175C164.572 92.4481 164.811 91.8541 164.855 91.055C164.901 90.2062 164.168 89.1397 163.526 88.0259C162.724 86.6768 161.974 85.3305 162.049 83.9606C162.124 82.5906 162.885 81.0575 164.641 81.1282Z" fill="white"/>
<path d="M167.654 94.2086L170.246 81.5735L172.505 81.6997L173.709 94.547L171.914 94.4467L171.712 91.8266L169.934 91.7273L169.449 94.309L167.654 94.2086ZM171.253 85.7843L171.219 85.4539L171.116 85.4481L171.047 85.7728L170.299 89.7662L171.563 89.8368L171.253 85.7843Z" fill="white"/>
<path d="M177.527 88.0989L177.405 87.5021L177.302 87.4964L176.909 94.7257L175.216 94.6311L175.91 81.8899L177.551 81.9816L178.988 88.7207L179.11 89.3175L179.21 89.3231L179.604 82.0963L181.299 82.191L180.605 94.9322L178.961 94.8404L177.527 88.0989Z" fill="white"/>
<path d="M184.079 95.1262L182.624 95.0449L183.318 82.3037L184.773 82.385C188.202 82.594 188.372 83.9776 188.1 88.9684C187.828 93.9592 187.502 95.3001 184.079 95.1262ZM184.573 93.2744C185.874 93.3471 185.978 93.0243 186.188 88.8441C186.398 84.6639 186.364 84.3508 185.063 84.2781L184.573 93.2744Z" fill="white"/>
<path d="M192.29 95.5853L190.847 95.5046L189.846 82.6687L191.561 82.7645L191.935 89.4268L191.947 89.8457L192.084 89.8534L192.158 89.4393L193.305 82.862L194.64 82.9366L195.066 89.6018L195.095 90.0216L195.232 90.0293L195.289 89.6142L196.384 83.0341L198.099 83.1299L195.713 95.7765L194.277 95.6963L193.751 89.6154L193.688 88.8652L193.62 88.8613L193.476 89.6001L192.29 95.5853Z" fill="white"/>
<path d="M199.64 83.2159L201.487 83.3192L200.793 96.0604L198.946 95.9571L199.64 83.2159Z" fill="white"/>
<path d="M207.859 92.0715L207.763 93.8236C207.763 93.8236 207.63 96.5818 205.149 96.4431C202.667 96.3045 202.837 93.5483 202.837 93.5483L203.245 86.0436C203.245 86.0436 203.378 83.2854 205.857 83.4239C208.337 83.5625 208.172 86.3189 208.172 86.3189L208.076 88.0685L206.362 87.9727L206.457 86.223C206.457 86.223 206.577 85.2888 205.805 85.2457C205.156 85.2094 205.105 86.1475 205.105 86.1475L204.696 93.6522C204.696 93.6522 204.645 94.5879 205.294 94.6241C206.066 94.6673 206.048 93.7278 206.048 93.7278L206.144 91.9757L207.859 92.0715Z" fill="white"/>
<path d="M212.969 91.1771L211.533 91.0968L211.231 96.6435L209.382 96.5402L210.076 83.799L211.925 83.9023L211.638 89.171L213.074 89.2512L213.361 83.9825L215.21 84.0859L214.517 96.8271L212.667 96.7237L212.969 91.1771Z" fill="white"/>
<path d="M179.99 103.299C179.991 103.481 179.949 103.66 179.868 103.823C179.787 103.985 179.67 104.126 179.525 104.233C179.168 104.47 178.742 104.577 178.318 104.535C177.887 104.527 177.463 104.419 177.08 104.219L177.113 103.33C177.353 103.453 177.602 103.558 177.858 103.642C178.04 103.7 178.228 103.735 178.419 103.746C178.584 103.763 178.751 103.729 178.896 103.647C178.952 103.608 178.997 103.556 179.028 103.495C179.059 103.434 179.075 103.367 179.074 103.298C179.078 103.214 179.056 103.131 179.009 103.062C178.953 102.982 178.884 102.912 178.803 102.858C178.624 102.738 178.438 102.629 178.246 102.533C178.032 102.429 177.833 102.297 177.654 102.139C177.525 102.019 177.42 101.875 177.346 101.714C177.24 101.464 177.215 101.186 177.274 100.92C177.333 100.654 177.474 100.414 177.677 100.235C177.999 100.005 178.393 99.9004 178.785 99.9392C179.007 99.9467 179.227 99.9827 179.439 100.047C179.66 100.115 179.875 100.202 180.082 100.305L179.753 101.039C179.567 100.949 179.374 100.872 179.177 100.81C179.03 100.767 178.879 100.742 178.726 100.735C178.58 100.72 178.434 100.758 178.314 100.844C178.266 100.882 178.228 100.931 178.201 100.987C178.174 101.043 178.16 101.104 178.16 101.166C178.155 101.243 178.172 101.32 178.21 101.387C178.255 101.461 178.314 101.524 178.385 101.573C178.57 101.698 178.764 101.81 178.964 101.909C179.282 102.056 179.563 102.273 179.79 102.542C179.94 102.764 180.011 103.031 179.99 103.299V103.299Z" fill="white"/>
<path d="M182.625 104.642L181.691 104.606L181.829 100.93L180.638 100.884L180.667 100.096L183.992 100.224L183.962 101.012L182.766 100.966L182.625 104.642Z" fill="white"/>
<path d="M185.683 103.043L185.619 104.757L184.685 104.721L184.853 100.25L186.137 100.3C186.735 100.323 187.174 100.45 187.454 100.681C187.678 100.901 187.816 101.195 187.844 101.51C187.872 101.825 187.787 102.139 187.605 102.396C187.443 102.604 187.227 102.763 186.982 102.855C187.607 103.884 188.015 104.549 188.205 104.849L187.168 104.809L186.181 103.055L185.683 103.043ZM185.712 102.273L186.014 102.285C186.241 102.311 186.471 102.268 186.674 102.161C186.747 102.11 186.807 102.041 186.847 101.96C186.887 101.88 186.906 101.79 186.902 101.7C186.912 101.612 186.899 101.523 186.864 101.442C186.83 101.361 186.774 101.291 186.703 101.24C186.501 101.128 186.272 101.073 186.042 101.08L185.757 101.069L185.712 102.273Z" fill="white"/>
<path d="M191.481 104.983L188.943 104.885L189.111 100.414L191.649 100.512L191.62 101.287L190.016 101.225L189.979 102.204L191.472 102.261L191.443 103.039L189.95 102.981L189.907 104.131L191.51 104.193L191.481 104.983Z" fill="white"/>
<path d="M195.121 105.123L192.586 105.026L192.754 100.555L195.289 100.653L195.26 101.428L193.659 101.366L193.623 102.344L195.113 102.402L195.084 103.179L193.593 103.122L193.55 104.272L195.151 104.334L195.121 105.123Z" fill="white"/>
<path d="M197.926 105.231L196.992 105.195L197.13 101.52L195.934 101.473L195.963 100.686L199.3 100.815L199.27 101.602L198.074 101.556L197.926 105.231Z" fill="white"/>
</g>
<defs>
<filter id="filter0_d_3119_3445" x="117.2" y="13.9499" width="11.7066" height="11.7066" filterUnits="userSpaceOnUse" color-interpolation-filters="sRGB">
<feFlood flood-opacity="0" result="BackgroundImageFix"/>
<feColorMatrix in="SourceAlpha" type="matrix" values="0 0 0 0 0 0 0 0 0 0 0 0 0 0 0 0 0 0 127 0" result="hardAlpha"/>
<feOffset dy="0.240643"/>
<feGaussianBlur stdDeviation="2.22595"/>
<feColorMatrix type="matrix" values="0 0 0 0 1 0 0 0 0 1 0 0 0 0 1 0 0 0 1 0"/>
<feBlend mode="normal" in2="BackgroundImageFix" result="effect1_dropShadow_3119_3445"/>
<feBlend mode="normal" in="SourceGraphic" in2="effect1_dropShadow_3119_3445" result="shape"/>
</filter>
<filter id="filter1_d_3119_3445" x="117.2" y="22.5878" width="11.7066" height="11.7066" filterUnits="userSpaceOnUse" color-interpolation-filters="sRGB">
<feFlood flood-opacity="0" result="BackgroundImageFix"/>
<feColorMatrix in="SourceAlpha" type="matrix" values="0 0 0 0 0 0 0 0 0 0 0 0 0 0 0 0 0 0 127 0" result="hardAlpha"/>
<feOffset dy="0.240643"/>
<feGaussianBlur stdDeviation="2.22595"/>
<feColorMatrix type="matrix" values="0 0 0 0 1 0 0 0 0 1 0 0 0 0 1 0 0 0 1 0"/>
<feBlend mode="normal" in2="BackgroundImageFix" result="effect1_dropShadow_3119_3445"/>
<feBlend mode="normal" in="SourceGraphic" in2="effect1_dropShadow_3119_3445" result="shape"/>
</filter>
<filter id="filter2_d_3119_3445" x="117.2" y="32.9533" width="11.7066" height="11.7066" filterUnits="userSpaceOnUse" color-interpolation-filters="sRGB">
<feFlood flood-opacity="0" result="BackgroundImageFix"/>
<feColorMatrix in="SourceAlpha" type="matrix" values="0 0 0 0 0 0 0 0 0 0 0 0 0 0 0 0 0 0 127 0" result="hardAlpha"/>
<feOffset dy="0.240643"/>
<feGaussianBlur stdDeviation="2.22595"/>
<feColorMatrix type="matrix" values="0 0 0 0 1 0 0 0 0 1 0 0 0 0 1 0 0 0 1 0"/>
<feBlend mode="normal" in2="BackgroundImageFix" result="effect1_dropShadow_3119_3445"/>
<feBlend mode="normal" in="SourceGraphic" in2="effect1_dropShadow_3119_3445" result="shape"/>
</filter>
<filter id="filter3_d_3119_3445" x="117.775" y="42.743" width="11.7066" height="11.7066" filterUnits="userSpaceOnUse" color-interpolation-filters="sRGB">
<feFlood flood-opacity="0" result="BackgroundImageFix"/>
<feColorMatrix in="SourceAlpha" type="matrix" values="0 0 0 0 0 0 0 0 0 0 0 0 0 0 0 0 0 0 127 0" result="hardAlpha"/>
<feOffset dy="0.240643"/>
<feGaussianBlur stdDeviation="2.22595"/>
<feColorMatrix type="matrix" values="0 0 0 0 1 0 0 0 0 1 0 0 0 0 1 0 0 0 1 0"/>
<feBlend mode="normal" in2="BackgroundImageFix" result="effect1_dropShadow_3119_3445"/>
<feBlend mode="normal" in="SourceGraphic" in2="effect1_dropShadow_3119_3445" result="shape"/>
</filter>
<filter id="filter4_d_3119_3445" x="117.775" y="54.8362" width="11.7066" height="11.7066" filterUnits="userSpaceOnUse" color-interpolation-filters="sRGB">
<feFlood flood-opacity="0" result="BackgroundImageFix"/>
<feColorMatrix in="SourceAlpha" type="matrix" values="0 0 0 0 0 0 0 0 0 0 0 0 0 0 0 0 0 0 127 0" result="hardAlpha"/>
<feOffset dy="0.240643"/>
<feGaussianBlur stdDeviation="2.22595"/>
<feColorMatrix type="matrix" values="0 0 0 0 1 0 0 0 0 1 0 0 0 0 1 0 0 0 1 0"/>
<feBlend mode="normal" in2="BackgroundImageFix" result="effect1_dropShadow_3119_3445"/>
<feBlend mode="normal" in="SourceGraphic" in2="effect1_dropShadow_3119_3445" result="shape"/>
</filter>
<filter id="filter5_d_3119_3445" x="118.351" y="65.202" width="11.7066" height="11.7066" filterUnits="userSpaceOnUse" color-interpolation-filters="sRGB">
<feFlood flood-opacity="0" result="BackgroundImageFix"/>
<feColorMatrix in="SourceAlpha" type="matrix" values="0 0 0 0 0 0 0 0 0 0 0 0 0 0 0 0 0 0 127 0" result="hardAlpha"/>
<feOffset dy="0.240643"/>
<feGaussianBlur stdDeviation="2.22595"/>
<feColorMatrix type="matrix" values="0 0 0 0 1 0 0 0 0 1 0 0 0 0 1 0 0 0 1 0"/>
<feBlend mode="normal" in2="BackgroundImageFix" result="effect1_dropShadow_3119_3445"/>
<feBlend mode="normal" in="SourceGraphic" in2="effect1_dropShadow_3119_3445" result="shape"/>
</filter>
<filter id="filter6_d_3119_3445" x="118.927" y="77.8709" width="11.7066" height="11.7066" filterUnits="userSpaceOnUse" color-interpolation-filters="sRGB">
<feFlood flood-opacity="0" result="BackgroundImageFix"/>
<feColorMatrix in="SourceAlpha" type="matrix" values="0 0 0 0 0 0 0 0 0 0 0 0 0 0 0 0 0 0 127 0" result="hardAlpha"/>
<feOffset dy="0.240643"/>
<feGaussianBlur stdDeviation="2.22595"/>
<feColorMatrix type="matrix" values="0 0 0 0 1 0 0 0 0 1 0 0 0 0 1 0 0 0 1 0"/>
<feBlend mode="normal" in2="BackgroundImageFix" result="effect1_dropShadow_3119_3445"/>
<feBlend mode="normal" in="SourceGraphic" in2="effect1_dropShadow_3119_3445" result="shape"/>
</filter>
<filter id="filter7_d_3119_3445" x="118.927" y="90.5398" width="11.7066" height="11.7066" filterUnits="userSpaceOnUse" color-interpolation-filters="sRGB">
<feFlood flood-opacity="0" result="BackgroundImageFix"/>
<feColorMatrix in="SourceAlpha" type="matrix" values="0 0 0 0 0 0 0 0 0 0 0 0 0 0 0 0 0 0 127 0" result="hardAlpha"/>
<feOffset dy="0.240643"/>
<feGaussianBlur stdDeviation="2.22595"/>
<feColorMatrix type="matrix" values="0 0 0 0 1 0 0 0 0 1 0 0 0 0 1 0 0 0 1 0"/>
<feBlend mode="normal" in2="BackgroundImageFix" result="effect1_dropShadow_3119_3445"/>
<feBlend mode="normal" in="SourceGraphic" in2="effect1_dropShadow_3119_3445" result="shape"/>
</filter>
<filter id="filter8_d_3119_3445" x="119.503" y="103.209" width="11.7066" height="11.7066" filterUnits="userSpaceOnUse" color-interpolation-filters="sRGB">
<feFlood flood-opacity="0" result="BackgroundImageFix"/>
<feColorMatrix in="SourceAlpha" type="matrix" values="0 0 0 0 0 0 0 0 0 0 0 0 0 0 0 0 0 0 127 0" result="hardAlpha"/>
<feOffset dy="0.240643"/>
<feGaussianBlur stdDeviation="2.22595"/>
<feColorMatrix type="matrix" values="0 0 0 0 1 0 0 0 0 1 0 0 0 0 1 0 0 0 1 0"/>
<feBlend mode="normal" in2="BackgroundImageFix" result="effect1_dropShadow_3119_3445"/>
<feBlend mode="normal" in="SourceGraphic" in2="effect1_dropShadow_3119_3445" result="shape"/>
</filter>
<filter id="filter9_d_3119_3445" x="118.351" y="115.302" width="11.7066" height="11.7066" filterUnits="userSpaceOnUse" color-interpolation-filters="sRGB">
<feFlood flood-opacity="0" result="BackgroundImageFix"/>
<feColorMatrix in="SourceAlpha" type="matrix" values="0 0 0 0 0 0 0 0 0 0 0 0 0 0 0 0 0 0 127 0" result="hardAlpha"/>
<feOffset dy="0.240643"/>
<feGaussianBlur stdDeviation="2.22595"/>
<feColorMatrix type="matrix" values="0 0 0 0 1 0 0 0 0 1 0 0 0 0 1 0 0 0 1 0"/>
<feBlend mode="normal" in2="BackgroundImageFix" result="effect1_dropShadow_3119_3445"/>
<feBlend mode="normal" in="SourceGraphic" in2="effect1_dropShadow_3119_3445" result="shape"/>
</filter>
<filter id="filter10_d_3119_3445" x="109.138" y="120.485" width="11.7066" height="11.7066" filterUnits="userSpaceOnUse" color-interpolation-filters="sRGB">
<feFlood flood-opacity="0" result="BackgroundImageFix"/>
<feColorMatrix in="SourceAlpha" type="matrix" values="0 0 0 0 0 0 0 0 0 0 0 0 0 0 0 0 0 0 127 0" result="hardAlpha"/>
<feOffset dy="0.240643"/>
<feGaussianBlur stdDeviation="2.22595"/>
<feColorMatrix type="matrix" values="0 0 0 0 1 0 0 0 0 1 0 0 0 0 1 0 0 0 1 0"/>
<feBlend mode="normal" in2="BackgroundImageFix" result="effect1_dropShadow_3119_3445"/>
<feBlend mode="normal" in="SourceGraphic" in2="effect1_dropShadow_3119_3445" result="shape"/>
</filter>
<filter id="filter11_d_3119_3445" x="95.3167" y="117.606" width="11.7066" height="11.7066" filterUnits="userSpaceOnUse" color-interpolation-filters="sRGB">
<feFlood flood-opacity="0" result="BackgroundImageFix"/>
<feColorMatrix in="SourceAlpha" type="matrix" values="0 0 0 0 0 0 0 0 0 0 0 0 0 0 0 0 0 0 127 0" result="hardAlpha"/>
<feOffset dy="0.240643"/>
<feGaussianBlur stdDeviation="2.22595"/>
<feColorMatrix type="matrix" values="0 0 0 0 1 0 0 0 0 1 0 0 0 0 1 0 0 0 1 0"/>
<feBlend mode="normal" in2="BackgroundImageFix" result="effect1_dropShadow_3119_3445"/>
<feBlend mode="normal" in="SourceGraphic" in2="effect1_dropShadow_3119_3445" result="shape"/>
</filter>
<filter id="filter12_d_3119_3445" x="80.9201" y="114.726" width="11.7066" height="11.7066" filterUnits="userSpaceOnUse" color-interpolation-filters="sRGB">
<feFlood flood-opacity="0" result="BackgroundImageFix"/>
<feColorMatrix in="SourceAlpha" type="matrix" values="0 0 0 0 0 0 0 0 0 0 0 0 0 0 0 0 0 0 127 0" result="hardAlpha"/>
<feOffset dy="0.240643"/>
<feGaussianBlur stdDeviation="2.22595"/>
<feColorMatrix type="matrix" values="0 0 0 0 1 0 0 0 0 1 0 0 0 0 1 0 0 0 1 0"/>
<feBlend mode="normal" in2="BackgroundImageFix" result="effect1_dropShadow_3119_3445"/>
<feBlend mode="normal" in="SourceGraphic" in2="effect1_dropShadow_3119_3445" result="shape"/>
</filter>
<filter id="filter13_d_3119_3445" x="67.0994" y="112.423" width="11.7066" height="11.7066" filterUnits="userSpaceOnUse" color-interpolation-filters="sRGB">
<feFlood flood-opacity="0" result="BackgroundImageFix"/>
<feColorMatrix in="SourceAlpha" type="matrix" values="0 0 0 0 0 0 0 0 0 0 0 0 0 0 0 0 0 0 127 0" result="hardAlpha"/>
<feOffset dy="0.240643"/>
<feGaussianBlur stdDeviation="2.22595"/>
<feColorMatrix type="matrix" values="0 0 0 0 1 0 0 0 0 1 0 0 0 0 1 0 0 0 1 0"/>
<feBlend mode="normal" in2="BackgroundImageFix" result="effect1_dropShadow_3119_3445"/>
<feBlend mode="normal" in="SourceGraphic" in2="effect1_dropShadow_3119_3445" result="shape"/>
</filter>
<filter id="filter14_d_3119_3445" x="53.2786" y="110.119" width="11.7066" height="11.7066" filterUnits="userSpaceOnUse" color-interpolation-filters="sRGB">
<feFlood flood-opacity="0" result="BackgroundImageFix"/>
<feColorMatrix in="SourceAlpha" type="matrix" values="0 0 0 0 0 0 0 0 0 0 0 0 0 0 0 0 0 0 127 0" result="hardAlpha"/>
<feOffset dy="0.240643"/>
<feGaussianBlur stdDeviation="2.22595"/>
<feColorMatrix type="matrix" values="0 0 0 0 1 0 0 0 0 1 0 0 0 0 1 0 0 0 1 0"/>
<feBlend mode="normal" in2="BackgroundImageFix" result="effect1_dropShadow_3119_3445"/>
<feBlend mode="normal" in="SourceGraphic" in2="effect1_dropShadow_3119_3445" result="shape"/>
</filter>
<filter id="filter15_d_3119_3445" x="39.4579" y="107.816" width="11.7066" height="11.7066" filterUnits="userSpaceOnUse" color-interpolation-filters="sRGB">
<feFlood flood-opacity="0" result="BackgroundImageFix"/>
<feColorMatrix in="SourceAlpha" type="matrix" values="0 0 0 0 0 0 0 0 0 0 0 0 0 0 0 0 0 0 127 0" result="hardAlpha"/>
<feOffset dy="0.240643"/>
<feGaussianBlur stdDeviation="2.22595"/>
<feColorMatrix type="matrix" values="0 0 0 0 1 0 0 0 0 1 0 0 0 0 1 0 0 0 1 0"/>
<feBlend mode="normal" in2="BackgroundImageFix" result="effect1_dropShadow_3119_3445"/>
<feBlend mode="normal" in="SourceGraphic" in2="effect1_dropShadow_3119_3445" result="shape"/>
</filter>
<filter id="filter16_d_3119_3445" x="26.2128" y="105.512" width="11.7066" height="11.7066" filterUnits="userSpaceOnUse" color-interpolation-filters="sRGB">
<feFlood flood-opacity="0" result="BackgroundImageFix"/>
<feColorMatrix in="SourceAlpha" type="matrix" values="0 0 0 0 0 0 0 0 0 0 0 0 0 0 0 0 0 0 127 0" result="hardAlpha"/>
<feOffset dy="0.240643"/>
<feGaussianBlur stdDeviation="2.22595"/>
<feColorMatrix type="matrix" values="0 0 0 0 1 0 0 0 0 1 0 0 0 0 1 0 0 0 1 0"/>
<feBlend mode="normal" in2="BackgroundImageFix" result="effect1_dropShadow_3119_3445"/>
<feBlend mode="normal" in="SourceGraphic" in2="effect1_dropShadow_3119_3445" result="shape"/>
</filter>
<filter id="filter17_d_3119_3445" x="18.1509" y="97.4504" width="11.7066" height="11.7066" filterUnits="userSpaceOnUse" color-interpolation-filters="sRGB">
<feFlood flood-opacity="0" result="BackgroundImageFix"/>
<feColorMatrix in="SourceAlpha" type="matrix" values="0 0 0 0 0 0 0 0 0 0 0 0 0 0 0 0 0 0 127 0" result="hardAlpha"/>
<feOffset dy="0.240643"/>
<feGaussianBlur stdDeviation="2.22595"/>
<feColorMatrix type="matrix" values="0 0 0 0 1 0 0 0 0 1 0 0 0 0 1 0 0 0 1 0"/>
<feBlend mode="normal" in2="BackgroundImageFix" result="effect1_dropShadow_3119_3445"/>
<feBlend mode="normal" in="SourceGraphic" in2="effect1_dropShadow_3119_3445" result="shape"/>
</filter>
<filter id="filter18_d_3119_3445" x="11.8162" y="100.33" width="11.7066" height="11.7066" filterUnits="userSpaceOnUse" color-interpolation-filters="sRGB">
<feFlood flood-opacity="0" result="BackgroundImageFix"/>
<feColorMatrix in="SourceAlpha" type="matrix" values="0 0 0 0 0 0 0 0 0 0 0 0 0 0 0 0 0 0 127 0" result="hardAlpha"/>
<feOffset dy="0.240643"/>
<feGaussianBlur stdDeviation="2.22595"/>
<feColorMatrix type="matrix" values="0 0 0 0 1 0 0 0 0 1 0 0 0 0 1 0 0 0 1 0"/>
<feBlend mode="normal" in2="BackgroundImageFix" result="effect1_dropShadow_3119_3445"/>
<feBlend mode="normal" in="SourceGraphic" in2="effect1_dropShadow_3119_3445" result="shape"/>
</filter>
<filter id="filter19_d_3119_3445" x="5.48182" y="103.209" width="11.7066" height="11.7066" filterUnits="userSpaceOnUse" color-interpolation-filters="sRGB">
<feFlood flood-opacity="0" result="BackgroundImageFix"/>
<feColorMatrix in="SourceAlpha" type="matrix" values="0 0 0 0 0 0 0 0 0 0 0 0 0 0 0 0 0 0 127 0" result="hardAlpha"/>
<feOffset dy="0.240643"/>
<feGaussianBlur stdDeviation="2.22595"/>
<feColorMatrix type="matrix" values="0 0 0 0 1 0 0 0 0 1 0 0 0 0 1 0 0 0 1 0"/>
<feBlend mode="normal" in2="BackgroundImageFix" result="effect1_dropShadow_3119_3445"/>
<feBlend mode="normal" in="SourceGraphic" in2="effect1_dropShadow_3119_3445" result="shape"/>
</filter>
<filter id="filter20_d_3119_3445" x="10.0888" y="109.544" width="11.7066" height="11.7066" filterUnits="userSpaceOnUse" color-interpolation-filters="sRGB">
<feFlood flood-opacity="0" result="BackgroundImageFix"/>
<feColorMatrix in="SourceAlpha" type="matrix" values="0 0 0 0 0 0 0 0 0 0 0 0 0 0 0 0 0 0 127 0" result="hardAlpha"/>
<feOffset dy="0.240643"/>
<feGaussianBlur stdDeviation="2.22595"/>
<feColorMatrix type="matrix" values="0 0 0 0 1 0 0 0 0 1 0 0 0 0 1 0 0 0 1 0"/>
<feBlend mode="normal" in2="BackgroundImageFix" result="effect1_dropShadow_3119_3445"/>
<feBlend mode="normal" in="SourceGraphic" in2="effect1_dropShadow_3119_3445" result="shape"/>
</filter>
<filter id="filter21_d_3119_3445" x="16.4231" y="116.454" width="11.7066" height="11.7066" filterUnits="userSpaceOnUse" color-interpolation-filters="sRGB">
<feFlood flood-opacity="0" result="BackgroundImageFix"/>
<feColorMatrix in="SourceAlpha" type="matrix" values="0 0 0 0 0 0 0 0 0 0 0 0 0 0 0 0 0 0 127 0" result="hardAlpha"/>
<feOffset dy="0.240643"/>
<feGaussianBlur stdDeviation="2.22595"/>
<feColorMatrix type="matrix" values="0 0 0 0 1 0 0 0 0 1 0 0 0 0 1 0 0 0 1 0"/>
<feBlend mode="normal" in2="BackgroundImageFix" result="effect1_dropShadow_3119_3445"/>
<feBlend mode="normal" in="SourceGraphic" in2="effect1_dropShadow_3119_3445" result="shape"/>
</filter>
<filter id="filter22_d_3119_3445" x="133.9" y="105.512" width="11.7066" height="11.7066" filterUnits="userSpaceOnUse" color-interpolation-filters="sRGB">
<feFlood flood-opacity="0" result="BackgroundImageFix"/>
<feColorMatrix in="SourceAlpha" type="matrix" values="0 0 0 0 0 0 0 0 0 0 0 0 0 0 0 0 0 0 127 0" result="hardAlpha"/>
<feOffset dy="0.240643"/>
<feGaussianBlur stdDeviation="2.22595"/>
<feColorMatrix type="matrix" values="0 0 0 0 1 0 0 0 0 1 0 0 0 0 1 0 0 0 1 0"/>
<feBlend mode="normal" in2="BackgroundImageFix" result="effect1_dropShadow_3119_3445"/>
<feBlend mode="normal" in="SourceGraphic" in2="effect1_dropShadow_3119_3445" result="shape"/>
</filter>
<filter id="filter23_d_3119_3445" x="135.051" y="120.485" width="11.7066" height="11.7066" filterUnits="userSpaceOnUse" color-interpolation-filters="sRGB">
<feFlood flood-opacity="0" result="BackgroundImageFix"/>
<feColorMatrix in="SourceAlpha" type="matrix" values="0 0 0 0 0 0 0 0 0 0 0 0 0 0 0 0 0 0 127 0" result="hardAlpha"/>
<feOffset dy="0.240643"/>
<feGaussianBlur stdDeviation="2.22595"/>
<feColorMatrix type="matrix" values="0 0 0 0 1 0 0 0 0 1 0 0 0 0 1 0 0 0 1 0"/>
<feBlend mode="normal" in2="BackgroundImageFix" result="effect1_dropShadow_3119_3445"/>
<feBlend mode="normal" in="SourceGraphic" in2="effect1_dropShadow_3119_3445" result="shape"/>
</filter>
<filter id="filter24_d_3119_3445" x="132.172" y="132.002" width="11.7066" height="11.7066" filterUnits="userSpaceOnUse" color-interpolation-filters="sRGB">
<feFlood flood-opacity="0" result="BackgroundImageFix"/>
<feColorMatrix in="SourceAlpha" type="matrix" values="0 0 0 0 0 0 0 0 0 0 0 0 0 0 0 0 0 0 127 0" result="hardAlpha"/>
<feOffset dy="0.240643"/>
<feGaussianBlur stdDeviation="2.22595"/>
<feColorMatrix type="matrix" values="0 0 0 0 1 0 0 0 0 1 0 0 0 0 1 0 0 0 1 0"/>
<feBlend mode="normal" in2="BackgroundImageFix" result="effect1_dropShadow_3119_3445"/>
<feBlend mode="normal" in="SourceGraphic" in2="effect1_dropShadow_3119_3445" result="shape"/>
</filter>
<filter id="filter25_d_3119_3445" x="120.079" y="134.306" width="11.7066" height="11.7066" filterUnits="userSpaceOnUse" color-interpolation-filters="sRGB">
<feFlood flood-opacity="0" result="BackgroundImageFix"/>
<feColorMatrix in="SourceAlpha" type="matrix" values="0 0 0 0 0 0 0 0 0 0 0 0 0 0 0 0 0 0 127 0" result="hardAlpha"/>
<feOffset dy="0.240643"/>
<feGaussianBlur stdDeviation="2.22595"/>
<feColorMatrix type="matrix" values="0 0 0 0 1 0 0 0 0 1 0 0 0 0 1 0 0 0 1 0"/>
<feBlend mode="normal" in2="BackgroundImageFix" result="effect1_dropShadow_3119_3445"/>
<feBlend mode="normal" in="SourceGraphic" in2="effect1_dropShadow_3119_3445" result="shape"/>
</filter>
<filter id="filter26_d_3119_3445" x="106.834" y="130.851" width="11.7066" height="11.7066" filterUnits="userSpaceOnUse" color-interpolation-filters="sRGB">
<feFlood flood-opacity="0" result="BackgroundImageFix"/>
<feColorMatrix in="SourceAlpha" type="matrix" values="0 0 0 0 0 0 0 0 0 0 0 0 0 0 0 0 0 0 127 0" result="hardAlpha"/>
<feOffset dy="0.240643"/>
<feGaussianBlur stdDeviation="2.22595"/>
<feColorMatrix type="matrix" values="0 0 0 0 1 0 0 0 0 1 0 0 0 0 1 0 0 0 1 0"/>
<feBlend mode="normal" in2="BackgroundImageFix" result="effect1_dropShadow_3119_3445"/>
<feBlend mode="normal" in="SourceGraphic" in2="effect1_dropShadow_3119_3445" result="shape"/>
</filter>
<filter id="filter27_d_3119_3445" x="92.4374" y="127.395" width="11.7066" height="11.7066" filterUnits="userSpaceOnUse" color-interpolation-filters="sRGB">
<feFlood flood-opacity="0" result="BackgroundImageFix"/>
<feColorMatrix in="SourceAlpha" type="matrix" values="0 0 0 0 0 0 0 0 0 0 0 0 0 0 0 0 0 0 127 0" result="hardAlpha"/>
<feOffset dy="0.240643"/>
<feGaussianBlur stdDeviation="2.22595"/>
<feColorMatrix type="matrix" values="0 0 0 0 1 0 0 0 0 1 0 0 0 0 1 0 0 0 1 0"/>
<feBlend mode="normal" in2="BackgroundImageFix" result="effect1_dropShadow_3119_3445"/>
<feBlend mode="normal" in="SourceGraphic" in2="effect1_dropShadow_3119_3445" result="shape"/>
</filter>
<filter id="filter28_d_3119_3445" x="79.1926" y="124.516" width="11.7066" height="11.7066" filterUnits="userSpaceOnUse" color-interpolation-filters="sRGB">
<feFlood flood-opacity="0" result="BackgroundImageFix"/>
<feColorMatrix in="SourceAlpha" type="matrix" values="0 0 0 0 0 0 0 0 0 0 0 0 0 0 0 0 0 0 127 0" result="hardAlpha"/>
<feOffset dy="0.240643"/>
<feGaussianBlur stdDeviation="2.22595"/>
<feColorMatrix type="matrix" values="0 0 0 0 1 0 0 0 0 1 0 0 0 0 1 0 0 0 1 0"/>
<feBlend mode="normal" in2="BackgroundImageFix" result="effect1_dropShadow_3119_3445"/>
<feBlend mode="normal" in="SourceGraphic" in2="effect1_dropShadow_3119_3445" result="shape"/>
</filter>
<filter id="filter29_d_3119_3445" x="64.7959" y="121.061" width="11.7066" height="11.7066" filterUnits="userSpaceOnUse" color-interpolation-filters="sRGB">
<feFlood flood-opacity="0" result="BackgroundImageFix"/>
<feColorMatrix in="SourceAlpha" type="matrix" values="0 0 0 0 0 0 0 0 0 0 0 0 0 0 0 0 0 0 127 0" result="hardAlpha"/>
<feOffset dy="0.240643"/>
<feGaussianBlur stdDeviation="2.22595"/>
<feColorMatrix type="matrix" values="0 0 0 0 1 0 0 0 0 1 0 0 0 0 1 0 0 0 1 0"/>
<feBlend mode="normal" in2="BackgroundImageFix" result="effect1_dropShadow_3119_3445"/>
<feBlend mode="normal" in="SourceGraphic" in2="effect1_dropShadow_3119_3445" result="shape"/>
</filter>
<filter id="filter30_d_3119_3445" x="50.975" y="118.181" width="11.7066" height="11.7066" filterUnits="userSpaceOnUse" color-interpolation-filters="sRGB">
<feFlood flood-opacity="0" result="BackgroundImageFix"/>
<feColorMatrix in="SourceAlpha" type="matrix" values="0 0 0 0 0 0 0 0 0 0 0 0 0 0 0 0 0 0 127 0" result="hardAlpha"/>
<feOffset dy="0.240643"/>
<feGaussianBlur stdDeviation="2.22595"/>
<feColorMatrix type="matrix" values="0 0 0 0 1 0 0 0 0 1 0 0 0 0 1 0 0 0 1 0"/>
<feBlend mode="normal" in2="BackgroundImageFix" result="effect1_dropShadow_3119_3445"/>
<feBlend mode="normal" in="SourceGraphic" in2="effect1_dropShadow_3119_3445" result="shape"/>
</filter>
<filter id="filter31_d_3119_3445" x="37.7302" y="115.302" width="11.7066" height="11.7066" filterUnits="userSpaceOnUse" color-interpolation-filters="sRGB">
<feFlood flood-opacity="0" result="BackgroundImageFix"/>
<feColorMatrix in="SourceAlpha" type="matrix" values="0 0 0 0 0 0 0 0 0 0 0 0 0 0 0 0 0 0 127 0" result="hardAlpha"/>
<feOffset dy="0.240643"/>
<feGaussianBlur stdDeviation="2.22595"/>
<feColorMatrix type="matrix" values="0 0 0 0 1 0 0 0 0 1 0 0 0 0 1 0 0 0 1 0"/>
<feBlend mode="normal" in2="BackgroundImageFix" result="effect1_dropShadow_3119_3445"/>
<feBlend mode="normal" in="SourceGraphic" in2="effect1_dropShadow_3119_3445" result="shape"/>
</filter>
<filter id="filter32_d_3119_3445" x="25.6369" y="112.999" width="11.7066" height="11.7066" filterUnits="userSpaceOnUse" color-interpolation-filters="sRGB">
<feFlood flood-opacity="0" result="BackgroundImageFix"/>
<feColorMatrix in="SourceAlpha" type="matrix" values="0 0 0 0 0 0 0 0 0 0 0 0 0 0 0 0 0 0 127 0" result="hardAlpha"/>
<feOffset dy="0.240643"/>
<feGaussianBlur stdDeviation="2.22595"/>
<feColorMatrix type="matrix" values="0 0 0 0 1 0 0 0 0 1 0 0 0 0 1 0 0 0 1 0"/>
<feBlend mode="normal" in2="BackgroundImageFix" result="effect1_dropShadow_3119_3445"/>
<feBlend mode="normal" in="SourceGraphic" in2="effect1_dropShadow_3119_3445" result="shape"/>
</filter>
<filter id="filter33_d_3119_3445" x="132.748" y="91.6917" width="11.7066" height="11.7066" filterUnits="userSpaceOnUse" color-interpolation-filters="sRGB">
<feFlood flood-opacity="0" result="BackgroundImageFix"/>
<feColorMatrix in="SourceAlpha" type="matrix" values="0 0 0 0 0 0 0 0 0 0 0 0 0 0 0 0 0 0 127 0" result="hardAlpha"/>
<feOffset dy="0.240643"/>
<feGaussianBlur stdDeviation="2.22595"/>
<feColorMatrix type="matrix" values="0 0 0 0 1 0 0 0 0 1 0 0 0 0 1 0 0 0 1 0"/>
<feBlend mode="normal" in2="BackgroundImageFix" result="effect1_dropShadow_3119_3445"/>
<feBlend mode="normal" in="SourceGraphic" in2="effect1_dropShadow_3119_3445" result="shape"/>
</filter>
<filter id="filter34_d_3119_3445" x="131.02" y="79.0226" width="11.7066" height="11.7066" filterUnits="userSpaceOnUse" color-interpolation-filters="sRGB">
<feFlood flood-opacity="0" result="BackgroundImageFix"/>
<feColorMatrix in="SourceAlpha" type="matrix" values="0 0 0 0 0 0 0 0 0 0 0 0 0 0 0 0 0 0 127 0" result="hardAlpha"/>
<feOffset dy="0.240643"/>
<feGaussianBlur stdDeviation="2.22595"/>
<feColorMatrix type="matrix" values="0 0 0 0 1 0 0 0 0 1 0 0 0 0 1 0 0 0 1 0"/>
<feBlend mode="normal" in2="BackgroundImageFix" result="effect1_dropShadow_3119_3445"/>
<feBlend mode="normal" in="SourceGraphic" in2="effect1_dropShadow_3119_3445" result="shape"/>
</filter>
<filter id="filter35_d_3119_3445" x="129.869" y="66.9294" width="11.7066" height="11.7066" filterUnits="userSpaceOnUse" color-interpolation-filters="sRGB">
<feFlood flood-opacity="0" result="BackgroundImageFix"/>
<feColorMatrix in="SourceAlpha" type="matrix" values="0 0 0 0 0 0 0 0 0 0 0 0 0 0 0 0 0 0 127 0" result="hardAlpha"/>
<feOffset dy="0.240643"/>
<feGaussianBlur stdDeviation="2.22595"/>
<feColorMatrix type="matrix" values="0 0 0 0 1 0 0 0 0 1 0 0 0 0 1 0 0 0 1 0"/>
<feBlend mode="normal" in2="BackgroundImageFix" result="effect1_dropShadow_3119_3445"/>
<feBlend mode="normal" in="SourceGraphic" in2="effect1_dropShadow_3119_3445" result="shape"/>
</filter>
<filter id="filter36_d_3119_3445" x="124.11" y="13.374" width="11.7066" height="11.7066" filterUnits="userSpaceOnUse" color-interpolation-filters="sRGB">
<feFlood flood-opacity="0" result="BackgroundImageFix"/>
<feColorMatrix in="SourceAlpha" type="matrix" values="0 0 0 0 0 0 0 0 0 0 0 0 0 0 0 0 0 0 127 0" result="hardAlpha"/>
<feOffset dy="0.240643"/>
<feGaussianBlur stdDeviation="2.22595"/>
<feColorMatrix type="matrix" values="0 0 0 0 1 0 0 0 0 1 0 0 0 0 1 0 0 0 1 0"/>
<feBlend mode="normal" in2="BackgroundImageFix" result="effect1_dropShadow_3119_3445"/>
<feBlend mode="normal" in="SourceGraphic" in2="effect1_dropShadow_3119_3445" result="shape"/>
</filter>
<filter id="filter37_d_3119_3445" x="125.262" y="22.5878" width="11.7066" height="11.7066" filterUnits="userSpaceOnUse" color-interpolation-filters="sRGB">
<feFlood flood-opacity="0" result="BackgroundImageFix"/>
<feColorMatrix in="SourceAlpha" type="matrix" values="0 0 0 0 0 0 0 0 0 0 0 0 0 0 0 0 0 0 127 0" result="hardAlpha"/>
<feOffset dy="0.240643"/>
<feGaussianBlur stdDeviation="2.22595"/>
<feColorMatrix type="matrix" values="0 0 0 0 1 0 0 0 0 1 0 0 0 0 1 0 0 0 1 0"/>
<feBlend mode="normal" in2="BackgroundImageFix" result="effect1_dropShadow_3119_3445"/>
<feBlend mode="normal" in="SourceGraphic" in2="effect1_dropShadow_3119_3445" result="shape"/>
</filter>
<filter id="filter38_d_3119_3445" x="126.989" y="32.3775" width="11.7066" height="11.7066" filterUnits="userSpaceOnUse" color-interpolation-filters="sRGB">
<feFlood flood-opacity="0" result="BackgroundImageFix"/>
<feColorMatrix in="SourceAlpha" type="matrix" values="0 0 0 0 0 0 0 0 0 0 0 0 0 0 0 0 0 0 127 0" result="hardAlpha"/>
<feOffset dy="0.240643"/>
<feGaussianBlur stdDeviation="2.22595"/>
<feColorMatrix type="matrix" values="0 0 0 0 1 0 0 0 0 1 0 0 0 0 1 0 0 0 1 0"/>
<feBlend mode="normal" in2="BackgroundImageFix" result="effect1_dropShadow_3119_3445"/>
<feBlend mode="normal" in="SourceGraphic" in2="effect1_dropShadow_3119_3445" result="shape"/>
</filter>
<filter id="filter39_d_3119_3445" x="128.141" y="43.319" width="11.7066" height="11.7066" filterUnits="userSpaceOnUse" color-interpolation-filters="sRGB">
<feFlood flood-opacity="0" result="BackgroundImageFix"/>
<feColorMatrix in="SourceAlpha" type="matrix" values="0 0 0 0 0 0 0 0 0 0 0 0 0 0 0 0 0 0 127 0" result="hardAlpha"/>
<feOffset dy="0.240643"/>
<feGaussianBlur stdDeviation="2.22595"/>
<feColorMatrix type="matrix" values="0 0 0 0 1 0 0 0 0 1 0 0 0 0 1 0 0 0 1 0"/>
<feBlend mode="normal" in2="BackgroundImageFix" result="effect1_dropShadow_3119_3445"/>
<feBlend mode="normal" in="SourceGraphic" in2="effect1_dropShadow_3119_3445" result="shape"/>
</filter>
<filter id="filter40_d_3119_3445" x="129.293" y="54.2604" width="11.7066" height="11.7066" filterUnits="userSpaceOnUse" color-interpolation-filters="sRGB">
<feFlood flood-opacity="0" result="BackgroundImageFix"/>
<feColorMatrix in="SourceAlpha" type="matrix" values="0 0 0 0 0 0 0 0 0 0 0 0 0 0 0 0 0 0 127 0" result="hardAlpha"/>
<feOffset dy="0.240643"/>
<feGaussianBlur stdDeviation="2.22595"/>
<feColorMatrix type="matrix" values="0 0 0 0 1 0 0 0 0 1 0 0 0 0 1 0 0 0 1 0"/>
<feBlend mode="normal" in2="BackgroundImageFix" result="effect1_dropShadow_3119_3445"/>
<feBlend mode="normal" in="SourceGraphic" in2="effect1_dropShadow_3119_3445" result="shape"/>
</filter>
<clipPath id="clip0_3119_3445">
<rect width="235" height="155" fill="white"/>
</clipPath>
</defs>
</svg>
