<svg width="40" height="40" viewBox="0 0 40 40" fill="none" xmlns="http://www.w3.org/2000/svg">
<circle cx="20" cy="20" r="19.25" stroke="#C91E25" stroke-width="1.5"/>
<path d="M19.7534 13.5298C16.1039 13.5298 13.1348 16.3999 13.1348 19.9278C13.1348 23.4667 16.1039 26.3261 19.7534 26.3261C23.414 26.3261 26.372 23.4667 26.372 19.9278C26.372 16.3999 23.414 13.5298 19.7534 13.5298ZM19.7534 25.0003C16.8634 25.0003 14.5173 22.7324 14.5173 19.9278C14.5173 17.1341 16.8633 14.8552 19.7534 14.8552C22.6547 14.8552 25.0007 17.1341 25.0007 19.9278C25.0008 22.7324 22.6548 25.0003 19.7534 25.0003Z" fill="#C91E25"/>
<path d="M25.1709 10.0321H14.3478C11.6845 10.0321 9.43457 12.1163 9.43457 14.7022V25.165C9.43457 27.7387 11.6845 29.576 14.3478 29.576H25.1709C27.8455 29.576 30.079 27.7387 30.079 25.165V14.7022C30.079 12.1163 27.8455 10.0321 25.1709 10.0321ZM28.8847 25.165C28.8847 27.1035 27.177 28.4215 25.1709 28.4215H14.3478C12.3413 28.4215 10.7142 27.1035 10.7142 25.165V14.7022C10.7142 12.7627 12.3413 11.1866 14.3478 11.1866H25.1709C27.177 11.1866 28.8847 12.7627 28.8847 14.7022V25.165Z" fill="#C91E25"/>
<path d="M26.2474 12.6644C25.658 12.6644 25.1821 13.1243 25.1821 13.6938C25.1821 14.2637 25.658 14.7238 26.2474 14.7238C26.8367 14.7238 27.3129 14.2637 27.3129 13.6938C27.3129 13.1243 26.8367 12.6644 26.2474 12.6644Z" fill="#C91E25"/>
</svg>
