<svg width="40" height="40" viewBox="0 0 40 40" fill="none" xmlns="http://www.w3.org/2000/svg">
<circle cx="20" cy="20" r="19.25" stroke="#199869" stroke-width="1.5"/>
<path d="M19.8803 13.5298C16.2309 13.5298 13.2617 16.3999 13.2617 19.9278C13.2617 23.4667 16.2309 26.3261 19.8803 26.3261C23.541 26.3261 26.4989 23.4667 26.4989 19.9278C26.499 16.3999 23.541 13.5298 19.8803 13.5298ZM19.8803 25.0003C16.9903 25.0003 14.6442 22.7324 14.6442 19.9278C14.6442 17.1341 16.9903 14.8552 19.8803 14.8552C22.7816 14.8552 25.1277 17.1341 25.1277 19.9278C25.1278 22.7324 22.7817 25.0003 19.8803 25.0003Z" fill="#199869"/>
<path d="M25.2979 10.0321H14.4747C11.8114 10.0321 9.56152 12.1163 9.56152 14.7022V25.165C9.56152 27.7387 11.8114 29.576 14.4747 29.576H25.2979C27.9725 29.576 30.206 27.7387 30.206 25.165V14.7022C30.206 12.1163 27.9725 10.0321 25.2979 10.0321ZM29.0117 25.165C29.0117 27.1035 27.304 28.4215 25.2979 28.4215H14.4747C12.4683 28.4215 10.8411 27.1035 10.8411 25.165V14.7022C10.8411 12.7627 12.4683 11.1866 14.4747 11.1866H25.2979C27.304 11.1866 29.0117 12.7627 29.0117 14.7022V25.165Z" fill="#199869"/>
<path d="M26.3743 12.6644C25.7849 12.6644 25.3091 13.1243 25.3091 13.6938C25.3091 14.2637 25.7849 14.7238 26.3743 14.7238C26.9636 14.7238 27.4399 14.2637 27.4399 13.6938C27.4399 13.1243 26.9636 12.6644 26.3743 12.6644Z" fill="#199869"/>
</svg>
