<svg xmlns="http://www.w3.org/2000/svg" viewBox="0 0 610.65 418.19"><defs><style>.cls-1,.cls-4{fill:#fff;}.cls-1,.cls-2{fill-rule:evenodd;}.cls-2,.cls-3{fill:#009555;}</style></defs><title>Ресурс 1</title><g id="Слой_2" data-name="Слой 2"><g id="Слой_1-2" data-name="Слой 1"><g id="Фигура_1_копия" data-name="Фигура 1 копия"><path class="cls-1" d="M598.53,193.76l-271.41-183c-12.48-8.42-32.74-8.42-45.22,0l-271.41,183C-2,202.18-2,215.83,10.49,224.25l271.41,183c12.48,8.42,32.74,8.43,45.22,0l271.41-183C611,215.83,611,202.18,598.53,193.76Z"/></g><g id="Фигура_1_копия-2" data-name="Фигура 1 копия"><path class="cls-2" d="M587,194.53,327,19.22c-12-8.07-31.38-8.07-43.34,0l-260,175.31c-12,8.07-12,21.15,0,29.22l260,175.31c12,8.07,31.38,8.07,43.34,0L587,223.75C599,215.68,599,202.6,587,194.53Z"/></g><path class="cls-3" d="M305,418.19l-1.3,0c-.07,0-1.11,0-1.77-.07-.45,0-1.36-.13-1.81-.19s-1.81-.24-2.41-.34-1.74-.3-2.61-.5a60.92,60.92,0,0,1-6-1.68,44.72,44.72,0,0,1-5.32-2.19,45.54,45.54,0,0,1-5.4-3.07l-8.11-5.45-38.85-26.16-18.78-12.66-39.57-26.68L153,325.65l-39-26.3L75.15,273.16l-20.61-13.9q-18.6-12.52-37.18-25.07c-1.66-1.11-3.31-2.24-5-3.37a34.34,34.34,0,0,1-7.55-7.14,23.64,23.64,0,0,1-4-8.09,24.72,24.72,0,0,1-.77-4.09c0-.39,0-.83,0-1.11v-2.26c0-.52.06-1.38.1-1.77,0-.2.08-.62.11-.82a28.66,28.66,0,0,1,2-6.62,22.71,22.71,0,0,1,3.66-5.53,34.67,34.67,0,0,1,7-6.18c3.62-2.43,7.22-4.9,10.85-7.34Q47.14,164,70.62,148.24L109.45,122l38.84-26.18,20.07-13.52L208.3,55.41q18.78-12.66,37.55-25.32,15.36-10.36,30.75-20.7c1.54-1,3.07-2.06,4.69-3a50,50,0,0,1,12.14-4.79c1.14-.29,3.46-.78,3.46-.78s3.62-.46,4.83-.6L303.93,0a21.4,21.4,0,0,1,2.66,0l1.59.11c.65.06,2,.16,2.61.24s2.4.39,2.4.39,3.05.6,4.55,1a50.86,50.86,0,0,1,10.12,3.89,46.78,46.78,0,0,1,4.58,2.72c3.32,2.22,6.65,4.44,10,6.67L376.27,37.9q7.19,4.83,14.36,9.67L433,76.11l18.59,12.53,37.73,25.44q10.41,7,20.8,14L550,155l39.39,26.55c2.7,1.82,5.38,3.67,8.09,5.47a36.74,36.74,0,0,1,6.84,6,24.36,24.36,0,0,1,4.4,6.89,21.17,21.17,0,0,1,1.36,4.45,24.67,24.67,0,0,1,.53,4.85c0,.59-.06,1.35-.1,1.8s-.13,1.15-.19,1.53a35.22,35.22,0,0,1-.76,3.45,22.53,22.53,0,0,1-4.59,8.53,35.63,35.63,0,0,1-7.22,6.54l-3.12,2.11-23.2,15.63q-20,13.47-39.94,26.93l-19.87,13.41L473,315.21l-19.87,13.4-38.84,26.18L394.6,368.08l-40.13,27q-11,7.38-21.92,14.74a46,46,0,0,1-5.56,3.23,64.19,64.19,0,0,1-9.56,3.51c-.75.21-2.25.59-3,.73-1,.2-3.12.46-4.16.59l-1,.11c-.42,0-.94.1-1.69.13s-1.09,0-1.91,0Zm.19-5.35c.59,0,1.33,0,1.77,0,1.17,0,3.49-.27,4.64-.44s3.43-.63,4.35-.85a45.69,45.69,0,0,0,15.08-6.8l13.62-9.19,38.83-26.19,38.84-26.18,38.1-25.69L500,290.82l20.62-13.89,38.1-25.69,31.65-21.36q2.4-1.6,4.78-3.23a24.34,24.34,0,0,0,3.74-3.13,22,22,0,0,0,2.48-3.13,24.21,24.21,0,0,0,1.91-3.75,28.83,28.83,0,0,0,1-3.4,28.35,28.35,0,0,0,.37-4.42c0-.33-.06-1-.1-1.32s-.1-.83-.14-1.1a26.31,26.31,0,0,0-.78-3.68,20.35,20.35,0,0,0-6.05-9.14,31,31,0,0,0-3.37-2.54l-16.55-11.18-19.69-13.29L517.63,139.4q-18.78-12.65-37.54-25.32L440,87,420.09,73.63,381.62,47.69l-28.17-19L331.37,13.83a51.32,51.32,0,0,0-6.11-3.61,46,46,0,0,0-7.2-2.87c-1.28-.38-2.89-.77-3.87-1-.38-.07-1.15-.18-1.53-.23-1-.11-2.93-.37-3.9-.47l-1.38-.13a37,37,0,0,0-4.21,0l-2.43.19c-.56,0-1.66.17-2.2.26-.22,0-.58.12-.87.16a49.26,49.26,0,0,0-5.18,1.19,46.11,46.11,0,0,0-12.76,6.09q-11.43,7.68-22.82,15.4L219.18,54.28q-10.41,7-20.8,14L160.1,94.12,121.26,120.3,81.32,147.23,41.39,174.16q-12.62,8.49-25.21,17c-.86.58-1.71,1.17-2.51,1.83a21,21,0,0,0-5.93,7.65,21.34,21.34,0,0,0-1.8,7.28A20.73,20.73,0,0,0,11.25,223a24.45,24.45,0,0,0,4.54,3.89c4.55,3,9.07,6.13,13.61,9.19L66,260.8l39.39,26.56L145,314l40.31,27.17L224,367.27l41.78,28.17,13.81,9.3a48.74,48.74,0,0,0,6.73,3.85,42.72,42.72,0,0,0,8.57,3c.79.18,1.79.35,2.39.46.76.14,2.3.35,3.07.43l.44.06A39.43,39.43,0,0,0,305.16,412.84Z"/><path class="cls-4" d="M305.32,121.59h69.87c.21,0,.42,0,.62,0a1.15,1.15,0,0,1,1.07,1.51,8.36,8.36,0,0,1-.6,1.45,10.77,10.77,0,0,1-2.3,3,15.68,15.68,0,0,1-2.69,2.05c-.88.53-1.79,1-2.71,1.5a10.29,10.29,0,0,1-3.85,1c-.65.06-1.31.09-2,.09H247.57a13.61,13.61,0,0,1-4-.54,8.68,8.68,0,0,1-1.11-.41,22.26,22.26,0,0,1-5-3.08,12.93,12.93,0,0,1-2.42-2.59,8.76,8.76,0,0,1-1.17-2.3,1.37,1.37,0,0,1-.08-.78,1.18,1.18,0,0,1,1.09-.91c.2,0,.41,0,.62,0Z"/><path class="cls-4" d="M306.26,82.75h17.55a3.4,3.4,0,0,1,1,.14,16.07,16.07,0,0,1,5.11,2.57,12.51,12.51,0,0,1,2.47,2.46c.09.11.14.27.33.3a2.77,2.77,0,0,0,.21-1.2,9.41,9.41,0,0,0-.11-1.18,3.14,3.14,0,0,0-.43-1.15,7.37,7.37,0,0,0-.67-1c-.26-.31-.57-.58-.85-.86,0-.12.12-.09.19-.09h32.23a12.64,12.64,0,0,1,3.62.48,8.09,8.09,0,0,1,1.28.45,21.94,21.94,0,0,1,5.13,3.14,13,13,0,0,1,2.33,2.52,10.42,10.42,0,0,1,1.2,2.35,1.21,1.21,0,0,1-1.17,1.67H235.42c-.19,0-.38,0-.56,0a1.18,1.18,0,0,1-1.08-1.56,8.43,8.43,0,0,1,1.1-2.28,12.65,12.65,0,0,1,2.68-2.88,21.5,21.5,0,0,1,4.86-2.94,11.14,11.14,0,0,1,4.1-.93c.34,0,.68,0,1,0h26.81a4.7,4.7,0,0,1,1.44.22,16.19,16.19,0,0,1,4.76,2.41,12.78,12.78,0,0,1,2.56,2.53,2.34,2.34,0,0,0,.25.3l.05,0a4.14,4.14,0,0,0,0-3,5.65,5.65,0,0,0-1.86-2.44,1,1,0,0,1,.26-.07h17.27a4.19,4.19,0,0,1,1.32.21,16,16,0,0,1,5.13,2.66,12.72,12.72,0,0,1,2.21,2.25l.26.34c.16,0,.17-.1.19-.18a4.82,4.82,0,0,0-1.5-4.77c-.14-.14-.3-.27-.44-.4Z"/><path class="cls-4" d="M237,103.51a9.12,9.12,0,0,1,3.34.78,14,14,0,0,1,2.53,1.48c.61.43,1.23.86,1.88,1.24a9.92,9.92,0,0,0,1.59.72,6.14,6.14,0,0,0,4.52-.08,10,10,0,0,0,2-1c.48-.32,1-.66,1.43-1a15.3,15.3,0,0,1,2-1.21,7.74,7.74,0,0,1,6.66-.26,12.55,12.55,0,0,1,2.6,1.46c.53.38,1.07.76,1.63,1.11a9.13,9.13,0,0,0,2.39,1.11,6.26,6.26,0,0,0,3.83-.07,8.55,8.55,0,0,0,1.93-.92c.61-.39,1.19-.8,1.78-1.21a14.81,14.81,0,0,1,2-1.23,7.77,7.77,0,0,1,6.61-.26,11.9,11.9,0,0,1,2.79,1.59,16.68,16.68,0,0,0,2,1.32,9.16,9.16,0,0,0,1.82.78,6.35,6.35,0,0,0,3.88-.08,10.21,10.21,0,0,0,2.22-1.1c.5-.33,1-.69,1.48-1a13,13,0,0,1,2.53-1.46,7.45,7.45,0,0,1,6.24.11A14.3,14.3,0,0,1,311,105.7c.56.4,1.13.8,1.72,1.17a9.35,9.35,0,0,0,1.83.88,6.28,6.28,0,0,0,4.15,0,9.32,9.32,0,0,0,2.18-1c.55-.35,1.09-.74,1.63-1.12a11.52,11.52,0,0,1,3.56-1.77,7.52,7.52,0,0,1,5.08.32,13.91,13.91,0,0,1,2.59,1.49c.58.41,1.16.82,1.77,1.21a9.26,9.26,0,0,0,1.82.88,6.27,6.27,0,0,0,4.21,0,9.51,9.51,0,0,0,2.13-1c.53-.34,1.06-.71,1.58-1.08a11.62,11.62,0,0,1,3.23-1.7,7.65,7.65,0,0,1,5.77.32,15.15,15.15,0,0,1,2.32,1.39c.56.4,1.14.8,1.72,1.18a9.28,9.28,0,0,0,1.88.9,6.28,6.28,0,0,0,4.15,0,10.55,10.55,0,0,0,2.47-1.23c.47-.31.92-.65,1.38-1a10.83,10.83,0,0,1,3.52-1.74,7.36,7.36,0,0,1,3.3-.19,1.19,1.19,0,0,1,1.09,1.28c0,.28,0,.56,0,.84A1.2,1.2,0,0,1,374.7,107l-.17,0a6.28,6.28,0,0,0-3.2.49,10.39,10.39,0,0,0-2.13,1.26,19.12,19.12,0,0,1-2.42,1.55,10.73,10.73,0,0,1-3,1.08,8.51,8.51,0,0,1-4.55-.4,12.8,12.8,0,0,1-2.66-1.35c-.47-.3-.93-.63-1.39-1a14.59,14.59,0,0,0-1.67-1.05,5.48,5.48,0,0,0-4.53-.32,10,10,0,0,0-2.43,1.3c-.43.31-.85.62-1.29.91a13.44,13.44,0,0,1-2.54,1.35,8.63,8.63,0,0,1-6.6,0,15.81,15.81,0,0,1-3.32-1.89c-.26-.19-.51-.39-.78-.56-.46-.29-.92-.59-1.4-.84a5.45,5.45,0,0,0-4.33-.32,9.56,9.56,0,0,0-2.53,1.33c-.43.31-.86.62-1.3.92a13.85,13.85,0,0,1-2.58,1.37,8.59,8.59,0,0,1-6.55,0A15.2,15.2,0,0,1,310,108.9c-.41-.29-.83-.59-1.25-.87a8.1,8.1,0,0,0-1.61-.81,5.16,5.16,0,0,0-3.59,0,7.83,7.83,0,0,0-1.61.81q-.62.41-1.2.84a15.5,15.5,0,0,1-3.43,1.95,9,9,0,0,1-3.13.65,8.91,8.91,0,0,1-3.46-.66,16.08,16.08,0,0,1-3.33-1.89c-.43-.31-.85-.62-1.3-.9a7.42,7.42,0,0,0-2.67-1,5.25,5.25,0,0,0-2.72.24,10.6,10.6,0,0,0-2.3,1.29c-.49.35-1,.71-1.48,1a13.28,13.28,0,0,1-2.45,1.28,8.61,8.61,0,0,1-6.54,0,15.59,15.59,0,0,1-3.33-1.88c-.43-.31-.86-.62-1.3-.9a7.47,7.47,0,0,0-2.61-1,5.14,5.14,0,0,0-2.72.21,8.06,8.06,0,0,0-1.71.86l-1.34.94a15,15,0,0,1-3.24,1.82,8.59,8.59,0,0,1-4,.61,9,9,0,0,1-2.56-.62,15.68,15.68,0,0,1-3.38-1.92c-.43-.31-.86-.61-1.3-.89a7.62,7.62,0,0,0-2.62-1,6.83,6.83,0,0,0-1.63,0,2.22,2.22,0,0,1-.44,0,1.16,1.16,0,0,1-1.11-1.08,10.65,10.65,0,0,1,0-1.13,1.13,1.13,0,0,1,1-1.09C236.06,103.59,236.52,103.56,237,103.51Z"/><path class="cls-4" d="M305.22,117.68H237.43A1.69,1.69,0,0,1,235.8,116a1.72,1.72,0,0,1,1.27-1.77,1.67,1.67,0,0,1,.39-.06H373.08a1.69,1.69,0,0,1,1.57,1.52,1.73,1.73,0,0,1-1.15,1.91,2.09,2.09,0,0,1-.5.08H305.22Z"/><path class="cls-4" d="M353,100.89H333.48a4.46,4.46,0,0,1-.73,0,1.65,1.65,0,0,1-1.46-1.6,1.72,1.72,0,0,1,1.76-1.91h39.44a5.23,5.23,0,0,1,.56,0,1.77,1.77,0,0,1,1.37,2.69,1.52,1.52,0,0,1-1.16.8,5.23,5.23,0,0,1-.79,0Z"/><path class="cls-4" d="M257.45,100.89H238a5.22,5.22,0,0,1-.79,0,1.67,1.67,0,0,1-1.45-1.62,1.74,1.74,0,0,1,1.78-1.89c.15,0,.3,0,.45,0H277c.21,0,.42,0,.62,0A1.78,1.78,0,0,1,279,100a1.58,1.58,0,0,1-1.2.84,7,7,0,0,1-.79,0Z"/><path class="cls-4" d="M305.16,97.35h19.46a4.24,4.24,0,0,1,.62,0,1.77,1.77,0,0,1,1.33,2.71,1.6,1.6,0,0,1-1.19.78,4.22,4.22,0,0,1-.62,0H285.49a4.16,4.16,0,0,1-.61,0,1.66,1.66,0,0,1-1.43-1.58,1.72,1.72,0,0,1,1.62-1.92h20.09Z"/><path class="cls-4" d="M121.3,159.71c17.09-.39,19.85,14.86,19.85,25.64l-13.94,1.31c0-6.44-.92-13.93-5.65-13.93-3.68.13-4.86,4.07-4.86,9.59,0,6.58,5.65,13.94,11.17,22,6.57,9.86,13.28,19.45,13.28,29.84,0,12.88-4.21,24.32-19.72,24.32-18.27,0-20.64-13.81-20.64-28.14L114.73,229c0,8,.78,16.43,6.7,16.43,4.21,0,5.78-4.6,5.78-10.65,0-6.44-6-14.19-11.43-22.34-6.71-9.86-13-19.72-13-30.11S107.89,160,121.3,159.71Z"/><path class="cls-4" d="M149.82,257.38l14.59-96.62h17.35l14.59,96.62h-13.8l-2.63-19.71H166.25l-2.63,19.71Zm24.05-65.2-.39-2.49h-.79l-.39,2.49-4.08,30.5H178Z"/><path class="cls-4" d="M222.9,207l-1.18-4.47h-.79v54.81h-13V160.76h12.62l13.8,50.35,1.18,4.47h.79V160.76h13v96.62H236.7Z"/><path class="cls-4" d="M276,257.38H264.83V160.76H276c26.28.14,28.26,10.52,28.26,48.38S302.29,257.25,276,257.38Zm3-14.19c10,0,10.65-2.5,10.51-34.18.14-31.55-.52-34-10.51-34Z"/><path class="cls-4" d="M339.1,257.38h-11l-13-96.62h13.15L333.84,211l.26,3.16h1.06l.39-3.16,6.05-50.22h10.25l6,50.22.4,3.16h1l.26-3.16,5.66-50.22H378.4l-13,96.62h-11l-6.58-45.74L347,206h-.52l-.79,5.65Z"/><path class="cls-4" d="M390.23,160.76h14.2v96.62h-14.2Z"/><path class="cls-4" d="M456.87,224.26v13.27s.13,20.91-18.93,20.91S419,237.53,419,237.53V180.61s-.13-20.9,18.92-20.9,18.93,20.9,18.93,20.9v13.28H443.6V180.61s.52-7.09-5.39-7.09c-5,0-5,7.09-5,7.09v56.92s0,7.1,5,7.1c5.91,0,5.39-7.1,5.39-7.1V224.26Z"/><path class="cls-4" d="M495.65,215.32h-11v42.06h-14.2V160.76h14.2v40h11v-40h14.19v96.62H495.65Z"/><path class="cls-4" d="M242.82,311.13a8.75,8.75,0,0,1-3.3,7.22c-2.2,1.76-5.25,2.63-9.17,2.63a21.52,21.52,0,0,1-9.58-2v-6.66a40,40,0,0,0,5.8,2.15,16.91,16.91,0,0,0,4.33.62,6.16,6.16,0,0,0,3.62-.9,3.08,3.08,0,0,0,1.26-2.68,3,3,0,0,0-.55-1.77,6.13,6.13,0,0,0-1.63-1.49,42.55,42.55,0,0,0-4.38-2.29,20.73,20.73,0,0,1-4.65-2.8,10.49,10.49,0,0,1-2.48-3.12,8.9,8.9,0,0,1-.92-4.17,8.72,8.72,0,0,1,3-7q3-2.57,8.41-2.57a19.75,19.75,0,0,1,5,.63,34.48,34.48,0,0,1,5,1.75l-2.31,5.58a33.68,33.68,0,0,0-4.47-1.55,14.58,14.58,0,0,0-3.49-.44,4.64,4.64,0,0,0-3.12.95,3.14,3.14,0,0,0-1.09,2.47,3.09,3.09,0,0,0,.44,1.66,4.93,4.93,0,0,0,1.4,1.36,43.29,43.29,0,0,0,4.55,2.37q4.74,2.26,6.5,4.55A8.88,8.88,0,0,1,242.82,311.13Z"/><path class="cls-4" d="M263.41,320.52h-7.17V292.67h-9.18v-6h25.53v6h-9.18Z"/><path class="cls-4" d="M286.39,307.55v13h-7.17V286.71h9.85q6.89,0,10.2,2.51c2.2,1.67,3.31,4.21,3.31,7.62a9,9,0,0,1-1.64,5.31,10.93,10.93,0,0,1-4.65,3.64q7.62,11.4,9.94,14.73h-8l-8.08-13Zm0-5.83h2.31a8.8,8.8,0,0,0,5-1.14,4,4,0,0,0,1.62-3.56,3.69,3.69,0,0,0-1.66-3.42,10,10,0,0,0-5.12-1h-2.17Z"/><path class="cls-4" d="M331.38,320.52H311.91V286.71h19.47v5.87h-12.3V300h11.45v5.87H319.08v8.72h12.3Z"/><path class="cls-4" d="M359.33,320.52H339.86V286.71h19.47v5.87H347V300h11.45v5.87H347v8.72h12.3Z"/><path class="cls-4" d="M380.85,320.52h-7.17V292.67H364.5v-6H390v6h-9.19Z"/></g></g></svg>