<svg xmlns="http://www.w3.org/2000/svg" viewBox="0 0 600.16 215.54"><defs><style>.cls-1{fill:#c90000;}.cls-2{fill:#fff;}</style></defs><title>Oldschool Burgers  </title><g id="Слой_2" data-name="Слой 2"><g id="Слой_1-2" data-name="Слой 1"><polygon class="cls-1" points="597.22 215.54 1.85 215.54 0 214.51 0 0 600.16 0 600.16 214.38 597.22 215.54"/><path class="cls-2" d="M177.25,180.35V141h6.56v39.38Zm19.69,0H187.1v-6.56h7.24l2.6-2.6v-4.64l-2.6-2.61H187.1v-6.56h7.24l2.6-2.6v-4.64l-2.6-2.6H187.1V141h9.84l6.56,6.57v9.84l-3.28,3.28,3.28,3.28v9.85Z"/><path class="cls-2" d="M221.44,180.35l-6.56-6.56V141h6.56v30.22l2.6,2.6h2.32v6.56Zm13.13,0h-4.92v-6.56H232l2.6-2.6V141h6.56v32.82Z"/><path class="cls-2" d="M252.45,180.35V141H259v39.38Zm19.12,0-7-16.41h-2.32v-6.56h7.25l2.6-2.6v-4.64l-2.6-2.6h-7.25V141h9.85l6.56,6.57v9.84l-6.56,6.56,6.56,16.41Z"/><path class="cls-2" d="M296.3,180.35l-6.56-6.56V147.54L296.3,141h4.92v6.57H298.9l-2.6,2.6v21.05l2.6,2.6h2.32v6.56Zm13.13-30.21-2.66-2.6H304.5V141h4.93l6.56,6.57v2.6Zm0,30.21H304.5v-6.56h2.27l2.66-2.6v-4.64H304.5v-5.89H316v13.13Z"/><path class="cls-2" d="M325.78,180.35V141h6.56v39.38Zm9.85-32.81V141H352v6.57Zm0,16.4v-6.56h10.46v6.56Zm0,16.41v-6.56H352v6.56Z"/><path class="cls-2" d="M361.37,180.35V141h6.56v39.38Zm19.12,0-6.95-16.41h-2.32v-6.56h7.24l2.6-2.6v-4.64l-2.6-2.6h-7.24V141h9.84l6.56,6.57v9.84l-6.56,6.56,6.56,16.41Z"/><path class="cls-2" d="M404.83,163.94l-6.57-6.56v-9.84l6.57-6.57h4.92v6.57h-2.26l-2.66,2.71v4.41l2.66,2.72h2.26v6.56Zm0,16.41-6.57-6.56v-2.6h6.57l2.66,2.6h2.26v6.56ZM418,150.14l-2.54-2.6H413V141H418l6.57,6.57v2.6Zm0,30.21H413v-6.56h2.32l2.6-2.6v-4.64l-2.6-2.61H413v-6.56H418l6.57,6.56v9.85Z"/><path class="cls-2" d="M55.84,108.44,44,96.61V49.28L55.84,37.45h8.88V49.28H60.53L55.84,54v38l4.69,4.69h4.19v11.83Zm23.77,0h-9V96.61h4.08l4.8-4.69V54l-4.7-4.69H70.63V37.45h8.88L91.34,49.28V96.61Z"/><path class="cls-2" d="M102.76,108.44v-71h11.83v71Zm17.75,0V96.61h29.58v11.83Z"/><path class="cls-2" d="M157.94,108.44v-71h11.83v71Zm35.5,0H175.69V96.61h12.95l4.8-4.69V54l-4.8-4.69H175.69V37.45h17.75l11.83,11.83V96.61Z"/><path class="cls-2" d="M229.54,78.86,217.71,67V49.28l11.83-11.83h8.88V49.28h-4.08l-4.8,4.89v8l4.8,4.9h4.08V78.86Zm0,29.58L217.71,96.61V91.92h11.83l4.8,4.69h4.08v11.83ZM253.21,54l-4.59-4.69h-4.29V37.45h8.88L265,49.28V54Zm0,54.47h-8.88V96.61h4.19l4.69-4.69V83.55l-4.69-4.69h-4.19V67h8.88L265,78.86V96.61Z"/><path class="cls-2" d="M288.7,108.44,276.87,96.61V49.28L288.7,37.45h8.88V49.28H293.4L288.7,54v38l4.7,4.69h4.18v11.83ZM312.37,54l-4.8-4.69h-4.08V37.45h8.88L324.2,49.28V54Zm0,54.47h-8.88V96.61h4.08l4.8-4.69H324.2v4.69Z"/><path class="cls-2" d="M334.09,108.44v-71h11.83v71Zm35.5,0V78.86H351.84V67h17.75V37.45h11.83v71Z"/><path class="cls-2" d="M406.82,108.44,395,96.61V49.28l11.84-11.83h8.87V49.28h-4.18L406.82,54v38l4.69,4.69h4.18v11.83Zm23.77,0h-9V96.61h4.08l4.79-4.69V54l-4.69-4.69h-4.18V37.45h8.87l11.84,11.83V96.61Z"/><path class="cls-2" d="M467.3,108.44,455.47,96.61V49.28L467.3,37.45h8.88V49.28H472L467.3,54v38l4.7,4.69h4.18v11.83Zm23.77,0h-9V96.61h4.08l4.8-4.69V54l-4.69-4.69h-4.19V37.45H491L502.8,49.28V96.61Z"/><path class="cls-2" d="M514.22,108.44v-71h11.83v71Zm17.75,0V96.61h29.58v11.83Z"/></g></g></svg>