<svg width="45" height="45" viewBox="0 0 45 45" fill="none" xmlns="http://www.w3.org/2000/svg">
<path d="M45 22.5C45 34.9264 34.9264 45 22.5 45C10.0736 45 0 34.9264 0 22.5C0 10.0736 10.0736 0 22.5 0C34.9264 0 45 10.0736 45 22.5Z" fill="#F3F3F3"/>
<path d="M26.8626 22.8966L18.9307 30.8285L13.3784 31.6217L14.1716 26.0694L24.483 15.758M24.483 15.758L29.2421 20.5171L30.7617 18.9975C31.2366 18.5226 31.2366 17.7525 30.7617 17.2775L27.7225 14.2384C27.2476 13.7635 26.4775 13.7635 26.0026 14.2384L24.483 15.758Z" stroke="#2B2D36" stroke-width="1.45946"/>
</svg>
